<svg preserveAspectRatio="none" width="100%" height="100%" overflow="visible" style="display: block;" viewBox="0 0 471.6 48.6" fill="none" xmlns="http://www.w3.org/2000/svg">
<g id="ArrowCircleDown">
<path id="Vector" d="M235.8 4.7998C231.943 4.7998 228.173 5.94346 224.966 8.08615C221.759 10.2288 219.26 13.2743 217.784 16.8375C216.308 20.4006 215.922 24.3214 216.675 28.1041C217.427 31.8867 219.284 35.3613 222.011 38.0884C224.738 40.8155 228.213 42.6727 231.996 43.4251C235.778 44.1775 239.699 43.7914 243.262 42.3155C246.825 40.8395 249.871 38.3402 252.013 35.1334C254.156 31.9267 255.3 28.1565 255.3 24.2998C255.294 19.1298 253.238 14.173 249.582 10.5173C245.927 6.86148 240.97 4.80526 235.8 4.7998ZM242.861 26.8611L236.861 32.8611C236.722 33.0005 236.556 33.1112 236.374 33.1866C236.192 33.2621 235.997 33.301 235.8 33.301C235.603 33.301 235.407 33.2621 235.225 33.1866C235.043 33.1112 234.878 33.0005 234.739 32.8611L228.739 26.8611C228.457 26.5796 228.299 26.1979 228.299 25.7998C228.299 25.4018 228.457 25.02 228.739 24.7386C229.02 24.4571 229.402 24.299 229.8 24.299C230.198 24.299 230.58 24.4571 230.861 24.7386L234.3 28.1792V16.7998C234.3 16.402 234.458 16.0204 234.739 15.7391C235.02 15.4578 235.402 15.2998 235.8 15.2998C236.198 15.2998 236.579 15.4578 236.86 15.7391C237.142 16.0204 237.3 16.402 237.3 16.7998V28.1792L240.739 24.7386C241.02 24.4571 241.402 24.299 241.8 24.299C242.198 24.299 242.58 24.4571 242.861 24.7386C243.143 25.02 243.301 25.4018 243.301 25.7998C243.301 26.1979 243.143 26.5796 242.861 26.8611Z" fill="var(--fill-0, #274F66)" fill-opacity="0.6"/>
</g>
</svg>
