<svg preserveAspectRatio="none" width="100%" height="100%" overflow="visible" style="display: block;" viewBox="0 0 308.979 48.8145" fill="none" xmlns="http://www.w3.org/2000/svg">
<g id="Frame 7">
<mask id="path-1-inside-1_0_33" fill="white">
<path d="M0 0H308.979V48.8145H0V0Z"/>
</mask>
<path d="M0 0V0.63942H308.979V0V-0.63942H0V0ZM308.979 48.8145V48.1751H0V48.8145V49.4539H308.979V48.8145Z" fill="var(--stroke-0, #274F66)" mask="url(#path-1-inside-1_0_33)"/>
<g id="THE CANOPY">
<mask id="path-3-outside-2_0_33" maskUnits="userSpaceOnUse" x="9.23073" y="9.23073" width="289" height="30" fill="black">
<rect fill="white" x="9.23073" y="9.23073" width="289" height="30"/>
<path d="M26.3942 37.7431V37.9342H15.5039V37.7431C17.1852 37.7431 18.5609 37.2081 18.5609 35.1829V12.3324C18.5609 11.6446 18.3698 11.3771 17.5291 11.3771C12.5616 11.3771 11.4153 12.9055 10.4218 19.8983H10.2307L10.995 11.186H30.9032L31.6674 19.8983H31.4764C30.5975 13.5934 28.9162 11.3771 24.369 11.3771C23.5284 11.3771 23.3373 11.6446 23.3373 12.3324V35.1829C23.3373 37.2081 24.7129 37.7431 26.3942 37.7431Z"/>
<path d="M50.3932 37.7431V37.9342H39.5029V37.7431C41.1842 37.7431 42.5599 37.2081 42.5599 35.1829V13.9373C42.5599 11.912 41.1842 11.3771 39.5029 11.3771V11.186H50.3932V11.3771C48.7119 11.3771 47.3363 11.912 47.3363 13.9373V23.1845H56.8128V13.9373C56.8128 11.912 55.4372 11.3771 53.7559 11.3771V11.186H64.6462V11.3771C62.9649 11.3771 61.5892 11.912 61.5892 13.9373V35.1829C61.5892 37.2081 62.9649 37.7431 64.6462 37.7431V37.9342H53.7559V37.7431C55.4372 37.7431 56.8128 37.2081 56.8128 35.1829V23.5666H47.3363V35.1829C47.3363 37.2081 48.7119 37.7431 50.3932 37.7431Z"/>
<path d="M88.1998 30.6357H88.0087C88.0087 24.3308 84.3022 23.9487 81.0924 23.9487V35.1829C81.0924 37.2081 82.468 37.7431 84.1493 37.7431C90.1868 37.7431 92.3648 36.1 93.5494 27.9609H93.7404L92.7851 37.9342H73.259V37.7431C74.9403 37.7431 76.3159 37.2081 76.3159 35.1829V13.9373C76.3159 11.912 74.9403 11.3771 73.259 11.3771V11.186H92.3648L93.1291 19.8983H92.938C91.7534 11.8738 89.5754 11.3771 83.9583 11.3771C82.3916 11.3771 81.0924 11.9885 81.0924 13.9373V23.5666C83.9965 23.5666 88.0087 23.2227 88.0087 17.4909H88.1998V30.6357Z"/>
<path d="M114.79 24.4837C114.79 16.6885 120.484 10.7275 128.126 10.7275C131.221 10.7275 134.737 11.6063 137.068 13.5169L135.692 20.7771H135.501C135.501 15.0454 131.985 10.9185 128.126 10.9185C123.35 10.9185 119.758 16.956 119.758 24.4837C119.758 32.0496 123.35 38.3927 128.203 38.3927C132.062 38.3927 135.425 35.4122 135.73 29.0691H135.921L137.182 35.6415C134.813 37.8959 131.259 38.5838 128.126 38.5838C120.216 38.5838 114.79 32.2788 114.79 24.4837Z"/>
<path d="M158.858 10.2307H159.278L169.022 35.4886C169.748 37.3228 171.162 37.7431 172.767 37.7431V37.9342H161.609V37.7431C163.214 37.7431 164.513 37.1317 163.902 35.4886L161.494 29.1837H152.133L150.528 33.387C149.152 37.0171 150.337 37.7431 154.349 37.7431V37.9342H144.452V37.7431C147.394 37.6667 148.77 36.9024 150.184 33.1195L158.858 10.2307ZM152.247 28.8016H161.342L156.756 16.9178L152.247 28.8016Z"/>
<path d="M178.175 11.3771V11.186H186.849L198.924 29.2983V15.9243C198.924 11.186 195.943 11.3771 194.262 11.3771V11.186H203.547V11.3771C201.866 11.3771 199.306 11.186 199.306 15.9243V37.9342H198.924L182.989 14.0137V33.1959C182.989 37.9342 185.55 37.7431 187.231 37.7431V37.9342H177.945V37.7431C179.627 37.7431 182.607 37.9342 182.607 33.1959V13.7844C181.69 12.0649 180.544 11.3771 178.175 11.3771Z"/>
<path d="M210.424 24.6365C210.424 16.5739 215.506 10.7275 223.76 10.7275C231.975 10.7275 237.134 16.6121 237.134 24.6365C237.134 32.661 232.013 38.5838 223.76 38.5838C215.468 38.5838 210.424 32.6992 210.424 24.6365ZM215.391 24.6365C215.391 32.6227 218.525 38.3927 223.76 38.3927C228.995 38.3927 232.166 32.5845 232.166 24.6365C232.166 16.7267 228.956 10.9185 223.76 10.9185C218.563 10.9185 215.391 16.6885 215.391 24.6365Z"/>
<path d="M255.099 37.7431V37.9342H244.208V37.7431C245.89 37.7431 247.265 37.2081 247.265 35.1829V13.9373C247.265 11.912 245.89 11.3771 244.208 11.3771V11.186H255.519C262.588 11.186 265.072 14.3958 265.072 18.1023C265.072 25.3243 256.703 25.7829 252.042 25.7829V35.1829C252.042 37.2081 253.417 37.7431 255.099 37.7431ZM252.042 25.4007C257.162 25.4007 260.104 24.2926 260.104 18.4462C260.104 14.4722 258.499 11.3771 254.869 11.3771C253.303 11.3771 252.042 11.9885 252.042 13.9373V25.4007Z"/>
<path d="M288.331 11.3771V11.186H297.922V11.3771C294.522 11.6446 293.07 12.7909 291.618 15.8096L287.452 24.4455V35.1829C287.452 37.2081 288.828 37.7431 290.509 37.7431V37.9342H279.619V37.7431C281.3 37.7431 282.676 37.2081 282.676 35.1829V25.2479L276.18 13.7462C275.11 11.8356 274.231 11.3771 271.939 11.3771V11.186H283.861V11.3771C282.179 11.3771 280.46 11.721 281.759 13.9755L287.376 23.7576L291.503 15.16C292.917 12.1795 291.694 11.3771 288.331 11.3771Z"/>
</mask>
<path d="M26.3942 37.7431V37.9342H15.5039V37.7431C17.1852 37.7431 18.5609 37.2081 18.5609 35.1829V12.3324C18.5609 11.6446 18.3698 11.3771 17.5291 11.3771C12.5616 11.3771 11.4153 12.9055 10.4218 19.8983H10.2307L10.995 11.186H30.9032L31.6674 19.8983H31.4764C30.5975 13.5934 28.9162 11.3771 24.369 11.3771C23.5284 11.3771 23.3373 11.6446 23.3373 12.3324V35.1829C23.3373 37.2081 24.7129 37.7431 26.3942 37.7431Z" fill="var(--fill-0, #274F66)"/>
<path d="M50.3932 37.7431V37.9342H39.5029V37.7431C41.1842 37.7431 42.5599 37.2081 42.5599 35.1829V13.9373C42.5599 11.912 41.1842 11.3771 39.5029 11.3771V11.186H50.3932V11.3771C48.7119 11.3771 47.3363 11.912 47.3363 13.9373V23.1845H56.8128V13.9373C56.8128 11.912 55.4372 11.3771 53.7559 11.3771V11.186H64.6462V11.3771C62.9649 11.3771 61.5892 11.912 61.5892 13.9373V35.1829C61.5892 37.2081 62.9649 37.7431 64.6462 37.7431V37.9342H53.7559V37.7431C55.4372 37.7431 56.8128 37.2081 56.8128 35.1829V23.5666H47.3363V35.1829C47.3363 37.2081 48.7119 37.7431 50.3932 37.7431Z" fill="var(--fill-0, #274F66)"/>
<path d="M88.1998 30.6357H88.0087C88.0087 24.3308 84.3022 23.9487 81.0924 23.9487V35.1829C81.0924 37.2081 82.468 37.7431 84.1493 37.7431C90.1868 37.7431 92.3648 36.1 93.5494 27.9609H93.7404L92.7851 37.9342H73.259V37.7431C74.9403 37.7431 76.3159 37.2081 76.3159 35.1829V13.9373C76.3159 11.912 74.9403 11.3771 73.259 11.3771V11.186H92.3648L93.1291 19.8983H92.938C91.7534 11.8738 89.5754 11.3771 83.9583 11.3771C82.3916 11.3771 81.0924 11.9885 81.0924 13.9373V23.5666C83.9965 23.5666 88.0087 23.2227 88.0087 17.4909H88.1998V30.6357Z" fill="var(--fill-0, #274F66)"/>
<path d="M114.79 24.4837C114.79 16.6885 120.484 10.7275 128.126 10.7275C131.221 10.7275 134.737 11.6063 137.068 13.5169L135.692 20.7771H135.501C135.501 15.0454 131.985 10.9185 128.126 10.9185C123.35 10.9185 119.758 16.956 119.758 24.4837C119.758 32.0496 123.35 38.3927 128.203 38.3927C132.062 38.3927 135.425 35.4122 135.73 29.0691H135.921L137.182 35.6415C134.813 37.8959 131.259 38.5838 128.126 38.5838C120.216 38.5838 114.79 32.2788 114.79 24.4837Z" fill="var(--fill-0, #274F66)"/>
<path d="M158.858 10.2307H159.278L169.022 35.4886C169.748 37.3228 171.162 37.7431 172.767 37.7431V37.9342H161.609V37.7431C163.214 37.7431 164.513 37.1317 163.902 35.4886L161.494 29.1837H152.133L150.528 33.387C149.152 37.0171 150.337 37.7431 154.349 37.7431V37.9342H144.452V37.7431C147.394 37.6667 148.77 36.9024 150.184 33.1195L158.858 10.2307ZM152.247 28.8016H161.342L156.756 16.9178L152.247 28.8016Z" fill="var(--fill-0, #274F66)"/>
<path d="M178.175 11.3771V11.186H186.849L198.924 29.2983V15.9243C198.924 11.186 195.943 11.3771 194.262 11.3771V11.186H203.547V11.3771C201.866 11.3771 199.306 11.186 199.306 15.9243V37.9342H198.924L182.989 14.0137V33.1959C182.989 37.9342 185.55 37.7431 187.231 37.7431V37.9342H177.945V37.7431C179.627 37.7431 182.607 37.9342 182.607 33.1959V13.7844C181.69 12.0649 180.544 11.3771 178.175 11.3771Z" fill="var(--fill-0, #274F66)"/>
<path d="M210.424 24.6365C210.424 16.5739 215.506 10.7275 223.76 10.7275C231.975 10.7275 237.134 16.6121 237.134 24.6365C237.134 32.661 232.013 38.5838 223.76 38.5838C215.468 38.5838 210.424 32.6992 210.424 24.6365ZM215.391 24.6365C215.391 32.6227 218.525 38.3927 223.76 38.3927C228.995 38.3927 232.166 32.5845 232.166 24.6365C232.166 16.7267 228.956 10.9185 223.76 10.9185C218.563 10.9185 215.391 16.6885 215.391 24.6365Z" fill="var(--fill-0, #274F66)"/>
<path d="M255.099 37.7431V37.9342H244.208V37.7431C245.89 37.7431 247.265 37.2081 247.265 35.1829V13.9373C247.265 11.912 245.89 11.3771 244.208 11.3771V11.186H255.519C262.588 11.186 265.072 14.3958 265.072 18.1023C265.072 25.3243 256.703 25.7829 252.042 25.7829V35.1829C252.042 37.2081 253.417 37.7431 255.099 37.7431ZM252.042 25.4007C257.162 25.4007 260.104 24.2926 260.104 18.4462C260.104 14.4722 258.499 11.3771 254.869 11.3771C253.303 11.3771 252.042 11.9885 252.042 13.9373V25.4007Z" fill="var(--fill-0, #274F66)"/>
<path d="M288.331 11.3771V11.186H297.922V11.3771C294.522 11.6446 293.07 12.7909 291.618 15.8096L287.452 24.4455V35.1829C287.452 37.2081 288.828 37.7431 290.509 37.7431V37.9342H279.619V37.7431C281.3 37.7431 282.676 37.2081 282.676 35.1829V25.2479L276.18 13.7462C275.11 11.8356 274.231 11.3771 271.939 11.3771V11.186H283.861V11.3771C282.179 11.3771 280.46 11.721 281.759 13.9755L287.376 23.7576L291.503 15.16C292.917 12.1795 291.694 11.3771 288.331 11.3771Z" fill="var(--fill-0, #274F66)"/>
<path d="M26.3942 37.7431V37.9342H15.5039V37.7431C17.1852 37.7431 18.5609 37.2081 18.5609 35.1829V12.3324C18.5609 11.6446 18.3698 11.3771 17.5291 11.3771C12.5616 11.3771 11.4153 12.9055 10.4218 19.8983H10.2307L10.995 11.186H30.9032L31.6674 19.8983H31.4764C30.5975 13.5934 28.9162 11.3771 24.369 11.3771C23.5284 11.3771 23.3373 11.6446 23.3373 12.3324V35.1829C23.3373 37.2081 24.7129 37.7431 26.3942 37.7431Z" stroke="var(--stroke-0, #274F66)" stroke-width="0.313147" mask="url(#path-3-outside-2_0_33)"/>
<path d="M50.3932 37.7431V37.9342H39.5029V37.7431C41.1842 37.7431 42.5599 37.2081 42.5599 35.1829V13.9373C42.5599 11.912 41.1842 11.3771 39.5029 11.3771V11.186H50.3932V11.3771C48.7119 11.3771 47.3363 11.912 47.3363 13.9373V23.1845H56.8128V13.9373C56.8128 11.912 55.4372 11.3771 53.7559 11.3771V11.186H64.6462V11.3771C62.9649 11.3771 61.5892 11.912 61.5892 13.9373V35.1829C61.5892 37.2081 62.9649 37.7431 64.6462 37.7431V37.9342H53.7559V37.7431C55.4372 37.7431 56.8128 37.2081 56.8128 35.1829V23.5666H47.3363V35.1829C47.3363 37.2081 48.7119 37.7431 50.3932 37.7431Z" stroke="var(--stroke-0, #274F66)" stroke-width="0.313147" mask="url(#path-3-outside-2_0_33)"/>
<path d="M88.1998 30.6357H88.0087C88.0087 24.3308 84.3022 23.9487 81.0924 23.9487V35.1829C81.0924 37.2081 82.468 37.7431 84.1493 37.7431C90.1868 37.7431 92.3648 36.1 93.5494 27.9609H93.7404L92.7851 37.9342H73.259V37.7431C74.9403 37.7431 76.3159 37.2081 76.3159 35.1829V13.9373C76.3159 11.912 74.9403 11.3771 73.259 11.3771V11.186H92.3648L93.1291 19.8983H92.938C91.7534 11.8738 89.5754 11.3771 83.9583 11.3771C82.3916 11.3771 81.0924 11.9885 81.0924 13.9373V23.5666C83.9965 23.5666 88.0087 23.2227 88.0087 17.4909H88.1998V30.6357Z" stroke="var(--stroke-0, #274F66)" stroke-width="0.313147" mask="url(#path-3-outside-2_0_33)"/>
<path d="M114.79 24.4837C114.79 16.6885 120.484 10.7275 128.126 10.7275C131.221 10.7275 134.737 11.6063 137.068 13.5169L135.692 20.7771H135.501C135.501 15.0454 131.985 10.9185 128.126 10.9185C123.35 10.9185 119.758 16.956 119.758 24.4837C119.758 32.0496 123.35 38.3927 128.203 38.3927C132.062 38.3927 135.425 35.4122 135.73 29.0691H135.921L137.182 35.6415C134.813 37.8959 131.259 38.5838 128.126 38.5838C120.216 38.5838 114.79 32.2788 114.79 24.4837Z" stroke="var(--stroke-0, #274F66)" stroke-width="0.313147" mask="url(#path-3-outside-2_0_33)"/>
<path d="M158.858 10.2307H159.278L169.022 35.4886C169.748 37.3228 171.162 37.7431 172.767 37.7431V37.9342H161.609V37.7431C163.214 37.7431 164.513 37.1317 163.902 35.4886L161.494 29.1837H152.133L150.528 33.387C149.152 37.0171 150.337 37.7431 154.349 37.7431V37.9342H144.452V37.7431C147.394 37.6667 148.77 36.9024 150.184 33.1195L158.858 10.2307ZM152.247 28.8016H161.342L156.756 16.9178L152.247 28.8016Z" stroke="var(--stroke-0, #274F66)" stroke-width="0.313147" mask="url(#path-3-outside-2_0_33)"/>
<path d="M178.175 11.3771V11.186H186.849L198.924 29.2983V15.9243C198.924 11.186 195.943 11.3771 194.262 11.3771V11.186H203.547V11.3771C201.866 11.3771 199.306 11.186 199.306 15.9243V37.9342H198.924L182.989 14.0137V33.1959C182.989 37.9342 185.55 37.7431 187.231 37.7431V37.9342H177.945V37.7431C179.627 37.7431 182.607 37.9342 182.607 33.1959V13.7844C181.69 12.0649 180.544 11.3771 178.175 11.3771Z" stroke="var(--stroke-0, #274F66)" stroke-width="0.313147" mask="url(#path-3-outside-2_0_33)"/>
<path d="M210.424 24.6365C210.424 16.5739 215.506 10.7275 223.76 10.7275C231.975 10.7275 237.134 16.6121 237.134 24.6365C237.134 32.661 232.013 38.5838 223.76 38.5838C215.468 38.5838 210.424 32.6992 210.424 24.6365ZM215.391 24.6365C215.391 32.6227 218.525 38.3927 223.76 38.3927C228.995 38.3927 232.166 32.5845 232.166 24.6365C232.166 16.7267 228.956 10.9185 223.76 10.9185C218.563 10.9185 215.391 16.6885 215.391 24.6365Z" stroke="var(--stroke-0, #274F66)" stroke-width="0.313147" mask="url(#path-3-outside-2_0_33)"/>
<path d="M255.099 37.7431V37.9342H244.208V37.7431C245.89 37.7431 247.265 37.2081 247.265 35.1829V13.9373C247.265 11.912 245.89 11.3771 244.208 11.3771V11.186H255.519C262.588 11.186 265.072 14.3958 265.072 18.1023C265.072 25.3243 256.703 25.7829 252.042 25.7829V35.1829C252.042 37.2081 253.417 37.7431 255.099 37.7431ZM252.042 25.4007C257.162 25.4007 260.104 24.2926 260.104 18.4462C260.104 14.4722 258.499 11.3771 254.869 11.3771C253.303 11.3771 252.042 11.9885 252.042 13.9373V25.4007Z" stroke="var(--stroke-0, #274F66)" stroke-width="0.313147" mask="url(#path-3-outside-2_0_33)"/>
<path d="M288.331 11.3771V11.186H297.922V11.3771C294.522 11.6446 293.07 12.7909 291.618 15.8096L287.452 24.4455V35.1829C287.452 37.2081 288.828 37.7431 290.509 37.7431V37.9342H279.619V37.7431C281.3 37.7431 282.676 37.2081 282.676 35.1829V25.2479L276.18 13.7462C275.11 11.8356 274.231 11.3771 271.939 11.3771V11.186H283.861V11.3771C282.179 11.3771 280.46 11.721 281.759 13.9755L287.376 23.7576L291.503 15.16C292.917 12.1795 291.694 11.3771 288.331 11.3771Z" stroke="var(--stroke-0, #274F66)" stroke-width="0.313147" mask="url(#path-3-outside-2_0_33)"/>
</g>
</g>
</svg>
