<svg preserveAspectRatio="none" width="100%" height="100%" overflow="visible" style="display: block;" viewBox="0 0 69.1164 6.44038" fill="none" xmlns="http://www.w3.org/2000/svg">
<g id="Group 5">
<path id="Vector" d="M44.9801 1.64546C44.9801 1.58168 44.8883 1.52214 44.8347 1.52895L43.2273 4.67574C43.0861 4.94279 42.8386 5.0593 42.5469 5.07376C42.222 5.08907 41.9635 4.93769 41.8146 4.64087L40.6665 2.35561C40.5499 2.12428 40.4419 1.91336 40.1885 1.77814L40.1868 6.30271L39.5047 6.30696V0.23281C40.0839 0.0286939 40.6129 -0.0418962 40.8995 0.509217L42.3377 3.26904L42.8411 4.11272L44.6841 0.575552C45.055 -0.059759 45.4708 0.021039 46.1708 0.205594V6.31887L44.9801 6.32057V1.64631V1.64546Z" fill="var(--fill-0, #C9CBC9)"/>
<path id="Vector_2" d="M1.12698 2.28412C1.01642 2.06384 0.91861 1.89119 0.671119 1.78063V6.31626L8.71585e-05 6.31796V0.25061C0.597977 -0.0198435 1.12443 -0.0096393 1.42465 0.565288L3.2736 4.1067L3.95058 2.95004L5.18634 0.577196C5.50952 -0.0428069 6.02236 -0.000282602 6.66703 0.213189V6.31711L5.46614 6.31966V1.57311L5.32667 1.52293L3.89105 4.33378C3.68693 4.73351 3.34589 5.05074 2.86792 5.06945C2.64509 5.07796 2.43672 4.9019 2.33637 4.70034L1.12783 2.28327L1.12698 2.28412Z" fill="var(--fill-0, #C9CBC9)"/>
<path id="Vector_3" d="M29.6225 2.37858C29.9423 3.96898 29.4447 5.51601 27.8441 6.09689C27.2743 6.28569 26.6985 6.35033 26.0879 6.34183L24.1658 6.31461V0.113738L26.0879 0.0933268C26.7096 0.0865229 27.3007 0.174121 27.8722 0.381639C28.7814 0.709926 29.4303 1.42348 29.6216 2.37687L29.6225 2.37858ZM28.2464 4.6128C28.4786 4.14333 28.4854 3.64154 28.5041 3.15082C28.5492 1.94993 27.9632 0.89533 26.7802 0.669952C26.3983 0.59681 26.0113 0.59256 25.6244 0.693768C25.4594 0.737143 25.2935 0.982934 25.2927 1.15303L25.2799 3.23416L25.2986 5.33911C25.3012 5.62912 25.5189 5.80007 25.7936 5.8409C26.7623 5.98463 27.7948 5.52537 28.2464 4.61195V4.6128Z" fill="var(--fill-0, #C9CBC9)"/>
<path id="Vector_4" d="M19.1364 6.43915C17.7468 6.43065 16.5943 5.57591 16.2048 4.26787C15.9667 3.46756 16.0041 2.62133 16.323 1.84994C16.7849 0.732403 17.8259 0.0511685 19.0276 0.00269095C20.3662 -0.0508895 21.5399 0.711145 21.9958 1.97581C22.2849 2.77867 22.2875 3.65127 22.0017 4.45838C21.5697 5.67882 20.4538 6.4468 19.1364 6.43915ZM20.7566 4.71777L21.0568 3.22177L20.9063 2.29304C20.7464 1.30563 20.1919 0.552955 19.1577 0.541048C18.4858 0.533394 17.9117 0.877838 17.6251 1.49614C17.1455 2.53118 17.1489 3.69889 17.5299 4.7688C17.7859 5.48661 18.4025 5.88719 19.1577 5.88889C19.9112 5.89059 20.5287 5.4781 20.7558 4.71777H20.7566Z" fill="var(--fill-0, #C9CBC9)"/>
<path id="Vector_5" d="M61.797 4.35016C61.3896 5.64204 60.2448 6.43554 58.9164 6.4398C57.5879 6.44405 56.4951 5.70668 56.0409 4.48964C55.7211 3.63235 55.7288 2.69256 56.0817 1.84973C56.5852 0.647149 57.7495 -0.0553491 59.0457 0.00418476C60.3614 0.0645691 61.4517 0.901443 61.8191 2.16866C62.0257 2.88222 62.0283 3.61704 61.797 4.35016ZM60.5289 4.6878L60.7857 3.40697L60.6701 2.19929C60.6429 1.91267 60.4923 1.62011 60.3545 1.37517C60.0535 0.841063 59.5236 0.549347 58.9172 0.540842C58.2079 0.531487 57.6143 0.917603 57.3379 1.57928C56.8888 2.65514 56.9007 3.87473 57.3702 4.94379C57.6483 5.5774 58.2453 5.88868 58.9147 5.88613C59.6844 5.88273 60.3035 5.45409 60.5289 4.6878Z" fill="var(--fill-0, #C9CBC9)"/>
<path id="Vector_6" d="M68.8876 6.31747C68.6069 6.29621 68.2812 6.25283 68.0422 6.10485L66.5683 4.1751L65.3309 2.52346C65.1251 2.24961 64.8869 2.03018 64.6182 1.81416L64.6165 6.32002H63.9267V0.19654C64.3562 0.0255924 64.8988 0.0842742 65.1974 0.489955L67.6433 3.8179L68.4624 4.82742L68.4649 0.166772L69.1164 0.168475L69.1036 5.77401C69.1036 5.96622 69.0203 6.14397 68.8876 6.31832V6.31747Z" fill="var(--fill-0, #C9CBC9)"/>
<path id="Vector_7" d="M11.2697 6.4362C9.92251 6.39113 8.82708 5.5466 8.45542 4.27853C8.2343 3.52415 8.25301 2.73235 8.51325 1.99243C8.92149 0.831516 9.94037 0.0907432 11.1617 0.00824631C12.5224 -0.0836059 13.7539 0.666519 14.2362 1.95245C14.5644 2.8293 14.5466 3.8031 14.1647 4.65954C13.6544 5.80429 12.5437 6.48042 11.2697 6.43705V6.4362ZM11.3488 5.88594C12.0997 5.90805 12.6704 5.53128 12.9332 4.86876C13.196 4.20623 13.3372 3.59303 13.3202 2.91264C13.3057 2.35643 13.1373 1.88271 12.8575 1.41665C12.4833 0.793242 11.8591 0.456452 11.1183 0.561912C10.6905 0.623147 10.2474 0.806 10.0314 1.20913C9.70053 1.82743 9.30931 2.79018 9.43093 3.4374C9.54404 4.04039 9.72349 4.62467 9.9914 5.16813C10.2431 5.67842 10.7917 5.86893 11.3479 5.88509L11.3488 5.88594Z" fill="var(--fill-0, #C9CBC9)"/>
<path id="Vector_8" d="M51.1148 6.44038C49.8237 6.43273 48.7326 5.69196 48.2903 4.50043C47.9705 3.63804 47.9807 2.68635 48.332 1.83672C48.8023 0.698768 49.8688 0.0175301 51.0927 0.0022214C52.3948 -0.0139378 53.5344 0.726831 53.9945 1.95068C54.2973 2.75438 54.2998 3.63634 54.0098 4.4443C53.5676 5.67495 52.4441 6.44719 51.1148 6.43953V6.44038ZM49.6247 4.93503C49.9164 5.53972 50.4471 5.90458 51.0774 5.92499C51.7076 5.9454 52.2808 5.63072 52.5827 5.0677C53.2316 3.85831 53.2214 2.47458 52.5223 1.2856C52.1966 0.731088 51.5783 0.468286 50.9447 0.532922C50.3111 0.597559 49.8654 0.998986 49.5975 1.57306C48.9945 2.86495 48.9903 3.61933 49.6256 4.93503H49.6247Z" fill="var(--fill-0, #C9CBC9)"/>
<path id="Vector_9" d="M34.3136 2.84773C34.0219 3.34952 33.8773 3.90318 33.9003 4.46875L33.9751 6.30665H32.7113L32.855 4.97819C32.8814 3.97547 32.6254 3.02973 32.0292 2.22347L30.9746 0.26056C31.234 0.117678 31.4917 0.061547 31.7902 0.0777062C32.0105 0.156801 32.2257 0.294579 32.343 0.513153L33.6409 2.92172L35.028 0.31244C35.0961 0.178915 35.21 0.114277 35.3555 0.110025L35.7688 0.201876L35.0544 1.57116L34.3128 2.84603L34.3136 2.84773Z" fill="var(--fill-0, #C9CBC9)"/>
</g>
</svg>
