<svg preserveAspectRatio="none" width="100%" height="100%" overflow="visible" style="display: block;" viewBox="0 0 27.7324 6.30413" fill="none" xmlns="http://www.w3.org/2000/svg">
<g id="Group 7">
<path id="Vector" d="M4.66324 6.14613L3.44686 6.15906L2.22494 3.8279C2.05777 3.50834 1.56272 3.42706 1.31335 3.6672C1.17759 3.79835 1.08707 4.05788 1.08615 4.24445L1.07414 6.14336L0 6.14151V0.0660982L1.81949 0.166767L3.24459 0.305306C4.2116 0.458623 4.59027 1.50598 4.32982 2.39079C4.06937 3.27559 3.09497 3.1583 3.39791 3.80574L4.66231 6.14521L4.66324 6.14613ZM2.46046 2.88491C2.91949 2.75468 3.23259 2.38432 3.26768 1.95393C3.30463 1.50321 3.08758 1.09406 2.67473 0.877937C2.26189 0.661816 1.77238 0.611941 1.31243 0.709842C1.12402 0.749557 1.03166 0.925964 1.05013 1.10884L1.09077 1.52169L1.09446 2.77593C1.09539 3.12597 1.95341 3.02807 2.46046 2.88491Z" fill="var(--fill-0, #C9CBC9)"/>
<path id="Vector_2" d="M12.972 5.97891L11.4702 6.16086L9.55926 6.27353V0.130701L11.037 0.114996C11.6891 0.108531 12.3153 0.136239 12.9341 0.317264C14.8432 0.827089 15.3558 2.92458 14.6353 4.61291C14.3333 5.32131 13.7321 5.79419 12.972 5.97799V5.97891ZM13.6351 4.2601C13.8512 3.51383 13.8457 2.70107 13.6 1.96681C13.2222 0.836329 12.0696 0.525073 10.9419 0.681161C10.7405 0.708869 10.6353 0.87789 10.6362 1.07739V5.25204C10.6371 5.46631 10.7692 5.63348 10.9798 5.65565C12.1398 5.77941 13.2961 5.43121 13.6351 4.2601Z" fill="var(--fill-0, #C9CBC9)"/>
<path id="Vector_3" d="M19.9466 5.57591C20.3899 5.51865 20.6485 5.22587 20.6623 4.80194L20.654 3.48951L21.778 3.48489L21.6728 4.95803C21.6386 5.43737 21.3726 5.83544 20.9302 6.01739C19.3333 6.67407 17.3365 6.20765 16.6715 4.56827C16.2586 3.55139 16.3168 2.39689 16.8617 1.43728C17.6376 0.0712793 19.639 -0.431158 20.8757 0.413932C21.2073 0.640213 21.4317 0.984719 21.622 1.34215C21.6441 1.49824 21.5471 1.74022 21.4474 1.87137C21.3911 1.94433 21.1629 2.00252 21.0789 1.96096C20.8212 1.83258 20.7205 1.52409 20.6817 1.26272C20.6226 0.868341 20.3428 0.626364 19.9503 0.581108C18.8558 0.455499 17.8186 1.22116 17.6699 2.33594C17.5701 3.0859 17.6403 3.85895 17.9368 4.55349C18.2693 5.33301 19.1236 5.6812 19.9466 5.57499V5.57591Z" fill="var(--fill-0, #C9CBC9)"/>
<path id="Vector_4" d="M24.802 3.77268V5.34372C24.802 5.47948 24.9442 5.64296 25.0735 5.64296L25.9075 5.6448C26.4885 5.64573 27.0343 5.63187 27.6411 5.53674C27.7021 5.59216 27.7381 5.76303 27.7316 5.86832C27.7261 5.96345 27.6051 6.14724 27.4943 6.15186L26.7342 6.18326L23.7288 6.19896L23.7158 5.38343L23.7242 3.04396V0.149406L27.34 0.161413L27.7104 0.653692L25.2093 0.662925C24.9969 0.662925 24.814 0.785764 24.8177 1.00373L24.8435 2.48703C24.8482 2.78165 25.1049 3.00424 25.3996 2.96822L26.7933 2.79736V3.43095H25.2148C25.031 3.43095 24.8029 3.527 24.8029 3.77083L24.802 3.77268Z" fill="var(--fill-0, #C9CBC9)"/>
<path id="Vector_5" d="M7.38894 6.146L6.24553 6.15246V0.197111L7.38894 0.196187V6.146Z" fill="var(--fill-0, #C9CBC9)"/>
</g>
</svg>
