<svg preserveAspectRatio="none" width="100%" height="100%" overflow="visible" style="display: block;" viewBox="0 0 202.755 32.0326" fill="none" xmlns="http://www.w3.org/2000/svg">
<g id="Frame 7">
<mask id="path-1-inside-1_0_21" fill="white">
<path d="M0 0H202.755V32.0326H0V0Z"/>
</mask>
<path d="M0 0V0.419594H202.755V0V-0.419594H0V0ZM202.755 32.0326V31.613H0V32.0326V32.4521H202.755V32.0326Z" fill="var(--stroke-0, #C9CBC9)" mask="url(#path-1-inside-1_0_21)"/>
<g id="THE CANOPY">
<mask id="path-3-outside-2_0_21" maskUnits="userSpaceOnUse" x="5.71334" y="5.71373" width="190" height="20" fill="black">
<rect fill="white" x="5.71334" y="5.71373" width="190" height="20"/>
<path d="M17.32 24.7676V24.893H10.1737V24.7676C11.277 24.7676 12.1797 24.4166 12.1797 23.0876V8.09285C12.1797 7.6415 12.0543 7.46598 11.5026 7.46598C8.2429 7.46598 7.49066 8.46897 6.83871 13.0577H6.71334L7.21483 7.3406H20.2788L20.7803 13.0577H20.655C20.0782 8.92032 18.9749 7.46598 15.991 7.46598C15.4394 7.46598 15.314 7.6415 15.314 8.09285V23.0876C15.314 24.4166 16.2167 24.7676 17.32 24.7676Z"/>
<path d="M33.0684 24.7676V24.893H25.922V24.7676C27.0253 24.7676 27.928 24.4166 27.928 23.0876V9.14599C27.928 7.81702 27.0253 7.46598 25.922 7.46598V7.3406H33.0684V7.46598C31.9651 7.46598 31.0624 7.81702 31.0624 9.14599V15.2141H37.281V9.14599C37.281 7.81702 36.3783 7.46598 35.275 7.46598V7.3406H42.4213V7.46598C41.318 7.46598 40.4153 7.81702 40.4153 9.14599V23.0876C40.4153 24.4166 41.318 24.7676 42.4213 24.7676V24.893H35.275V24.7676C36.3783 24.7676 37.281 24.4166 37.281 23.0876V15.4649H31.0624V23.0876C31.0624 24.4166 31.9651 24.7676 33.0684 24.7676Z"/>
<path d="M57.8774 20.1037H57.752C57.752 15.9664 55.3198 15.7156 53.2135 15.7156V23.0876C53.2135 24.4166 54.1162 24.7676 55.2195 24.7676C59.1813 24.7676 60.6106 23.6894 61.3879 18.3485H61.5133L60.8864 24.893H48.0731V24.7676C49.1764 24.7676 50.0791 24.4166 50.0791 23.0876V9.14599C50.0791 7.81702 49.1764 7.46598 48.0731 7.46598V7.3406H60.6106L61.1121 13.0577H60.9867C60.2094 7.79195 58.7801 7.46598 55.0941 7.46598C54.066 7.46598 53.2135 7.86717 53.2135 9.14599V15.4649C55.1192 15.4649 57.752 15.2392 57.752 11.478H57.8774V20.1037Z"/>
<path d="M75.3264 16.0667C75.3264 10.9514 79.0625 7.0397 84.0775 7.0397C86.1085 7.0397 88.4154 7.61643 89.945 8.87017L89.0423 13.6344H88.9169C88.9169 9.87316 86.61 7.16508 84.0775 7.16508C80.9431 7.16508 78.5861 11.1269 78.5861 16.0667C78.5861 21.0315 80.9431 25.1939 84.1276 25.1939C86.6602 25.1939 88.8668 23.2381 89.0674 19.0756H89.1928L90.0202 23.3885C88.4656 24.8679 86.1336 25.3193 84.0775 25.3193C78.887 25.3193 75.3264 21.1819 75.3264 16.0667Z"/>
<path d="M104.244 6.71373H104.52L110.914 23.2882C111.39 24.4918 112.318 24.7676 113.371 24.7676V24.893H106.049V24.7676C107.102 24.7676 107.955 24.3664 107.554 23.2882L105.974 19.1509H99.8308L98.7776 21.9091C97.8749 24.2912 98.6522 24.7676 101.285 24.7676V24.893H94.7907V24.7676C96.7215 24.7175 97.6242 24.216 98.5519 21.7336L104.244 6.71373ZM99.906 18.9001H105.874L102.865 11.1018L99.906 18.9001Z"/>
<path d="M116.92 7.46598V7.3406H122.612L130.536 19.2261V10.4499C130.536 7.3406 128.58 7.46598 127.476 7.46598V7.3406H133.57V7.46598C132.466 7.46598 130.786 7.3406 130.786 10.4499V24.893H130.536L120.079 9.19614V21.7837C120.079 24.893 121.759 24.7676 122.863 24.7676V24.893H116.769V24.7676C117.873 24.7676 119.829 24.893 119.829 21.7837V9.04569C119.227 7.91732 118.475 7.46598 116.92 7.46598Z"/>
<path d="M138.082 16.1669C138.082 10.8762 141.417 7.0397 146.833 7.0397C152.224 7.0397 155.609 10.9012 155.609 16.1669C155.609 21.4327 152.249 25.3193 146.833 25.3193C141.392 25.3193 138.082 21.4577 138.082 16.1669ZM141.342 16.1669C141.342 21.4076 143.398 25.1939 146.833 25.1939C150.268 25.1939 152.35 21.3825 152.35 16.1669C152.35 10.9765 150.243 7.16508 146.833 7.16508C143.423 7.16508 141.342 10.9514 141.342 16.1669Z"/>
<path d="M167.398 24.7676V24.893H160.252V24.7676C161.355 24.7676 162.258 24.4166 162.258 23.0876V9.14599C162.258 7.81702 161.355 7.46598 160.252 7.46598V7.3406H167.674C172.313 7.3406 173.943 9.44689 173.943 11.8791C173.943 16.6183 168.451 16.9192 165.392 16.9192V23.0876C165.392 24.4166 166.295 24.7676 167.398 24.7676ZM165.392 16.6684C168.752 16.6684 170.683 15.9413 170.683 12.1048C170.683 9.49704 169.63 7.46598 167.248 7.46598C166.22 7.46598 165.392 7.86717 165.392 9.14599V16.6684Z"/>
<path d="M189.206 7.46598V7.3406H195.5V7.46598C193.268 7.6415 192.315 8.39375 191.362 10.3747L188.629 16.0416V23.0876C188.629 24.4166 189.532 24.7676 190.635 24.7676V24.893H183.489V24.7676C184.592 24.7676 185.495 24.4166 185.495 23.0876V16.5681L181.232 9.02062C180.53 7.76687 179.953 7.46598 178.449 7.46598V7.3406H186.272V7.46598C185.169 7.46598 184.04 7.69165 184.893 9.17107L188.579 15.5902L191.287 9.94839C192.215 7.99255 191.412 7.46598 189.206 7.46598Z"/>
</mask>
<path d="M17.32 24.7676V24.893H10.1737V24.7676C11.277 24.7676 12.1797 24.4166 12.1797 23.0876V8.09285C12.1797 7.6415 12.0543 7.46598 11.5026 7.46598C8.2429 7.46598 7.49066 8.46897 6.83871 13.0577H6.71334L7.21483 7.3406H20.2788L20.7803 13.0577H20.655C20.0782 8.92032 18.9749 7.46598 15.991 7.46598C15.4394 7.46598 15.314 7.6415 15.314 8.09285V23.0876C15.314 24.4166 16.2167 24.7676 17.32 24.7676Z" fill="var(--fill-0, #E0E0DD)"/>
<path d="M33.0684 24.7676V24.893H25.922V24.7676C27.0253 24.7676 27.928 24.4166 27.928 23.0876V9.14599C27.928 7.81702 27.0253 7.46598 25.922 7.46598V7.3406H33.0684V7.46598C31.9651 7.46598 31.0624 7.81702 31.0624 9.14599V15.2141H37.281V9.14599C37.281 7.81702 36.3783 7.46598 35.275 7.46598V7.3406H42.4213V7.46598C41.318 7.46598 40.4153 7.81702 40.4153 9.14599V23.0876C40.4153 24.4166 41.318 24.7676 42.4213 24.7676V24.893H35.275V24.7676C36.3783 24.7676 37.281 24.4166 37.281 23.0876V15.4649H31.0624V23.0876C31.0624 24.4166 31.9651 24.7676 33.0684 24.7676Z" fill="var(--fill-0, #E0E0DD)"/>
<path d="M57.8774 20.1037H57.752C57.752 15.9664 55.3198 15.7156 53.2135 15.7156V23.0876C53.2135 24.4166 54.1162 24.7676 55.2195 24.7676C59.1813 24.7676 60.6106 23.6894 61.3879 18.3485H61.5133L60.8864 24.893H48.0731V24.7676C49.1764 24.7676 50.0791 24.4166 50.0791 23.0876V9.14599C50.0791 7.81702 49.1764 7.46598 48.0731 7.46598V7.3406H60.6106L61.1121 13.0577H60.9867C60.2094 7.79195 58.7801 7.46598 55.0941 7.46598C54.066 7.46598 53.2135 7.86717 53.2135 9.14599V15.4649C55.1192 15.4649 57.752 15.2392 57.752 11.478H57.8774V20.1037Z" fill="var(--fill-0, #E0E0DD)"/>
<path d="M75.3264 16.0667C75.3264 10.9514 79.0625 7.0397 84.0775 7.0397C86.1085 7.0397 88.4154 7.61643 89.945 8.87017L89.0423 13.6344H88.9169C88.9169 9.87316 86.61 7.16508 84.0775 7.16508C80.9431 7.16508 78.5861 11.1269 78.5861 16.0667C78.5861 21.0315 80.9431 25.1939 84.1276 25.1939C86.6602 25.1939 88.8668 23.2381 89.0674 19.0756H89.1928L90.0202 23.3885C88.4656 24.8679 86.1336 25.3193 84.0775 25.3193C78.887 25.3193 75.3264 21.1819 75.3264 16.0667Z" fill="var(--fill-0, #E0E0DD)"/>
<path d="M104.244 6.71373H104.52L110.914 23.2882C111.39 24.4918 112.318 24.7676 113.371 24.7676V24.893H106.049V24.7676C107.102 24.7676 107.955 24.3664 107.554 23.2882L105.974 19.1509H99.8308L98.7776 21.9091C97.8749 24.2912 98.6522 24.7676 101.285 24.7676V24.893H94.7907V24.7676C96.7215 24.7175 97.6242 24.216 98.5519 21.7336L104.244 6.71373ZM99.906 18.9001H105.874L102.865 11.1018L99.906 18.9001Z" fill="var(--fill-0, #E0E0DD)"/>
<path d="M116.92 7.46598V7.3406H122.612L130.536 19.2261V10.4499C130.536 7.3406 128.58 7.46598 127.476 7.46598V7.3406H133.57V7.46598C132.466 7.46598 130.786 7.3406 130.786 10.4499V24.893H130.536L120.079 9.19614V21.7837C120.079 24.893 121.759 24.7676 122.863 24.7676V24.893H116.769V24.7676C117.873 24.7676 119.829 24.893 119.829 21.7837V9.04569C119.227 7.91732 118.475 7.46598 116.92 7.46598Z" fill="var(--fill-0, #E0E0DD)"/>
<path d="M138.082 16.1669C138.082 10.8762 141.417 7.0397 146.833 7.0397C152.224 7.0397 155.609 10.9012 155.609 16.1669C155.609 21.4327 152.249 25.3193 146.833 25.3193C141.392 25.3193 138.082 21.4577 138.082 16.1669ZM141.342 16.1669C141.342 21.4076 143.398 25.1939 146.833 25.1939C150.268 25.1939 152.35 21.3825 152.35 16.1669C152.35 10.9765 150.243 7.16508 146.833 7.16508C143.423 7.16508 141.342 10.9514 141.342 16.1669Z" fill="var(--fill-0, #E0E0DD)"/>
<path d="M167.398 24.7676V24.893H160.252V24.7676C161.355 24.7676 162.258 24.4166 162.258 23.0876V9.14599C162.258 7.81702 161.355 7.46598 160.252 7.46598V7.3406H167.674C172.313 7.3406 173.943 9.44689 173.943 11.8791C173.943 16.6183 168.451 16.9192 165.392 16.9192V23.0876C165.392 24.4166 166.295 24.7676 167.398 24.7676ZM165.392 16.6684C168.752 16.6684 170.683 15.9413 170.683 12.1048C170.683 9.49704 169.63 7.46598 167.248 7.46598C166.22 7.46598 165.392 7.86717 165.392 9.14599V16.6684Z" fill="var(--fill-0, #E0E0DD)"/>
<path d="M189.206 7.46598V7.3406H195.5V7.46598C193.268 7.6415 192.315 8.39375 191.362 10.3747L188.629 16.0416V23.0876C188.629 24.4166 189.532 24.7676 190.635 24.7676V24.893H183.489V24.7676C184.592 24.7676 185.495 24.4166 185.495 23.0876V16.5681L181.232 9.02062C180.53 7.76687 179.953 7.46598 178.449 7.46598V7.3406H186.272V7.46598C185.169 7.46598 184.04 7.69165 184.893 9.17107L188.579 15.5902L191.287 9.94839C192.215 7.99255 191.412 7.46598 189.206 7.46598Z" fill="var(--fill-0, #E0E0DD)"/>
<path d="M17.32 24.7676V24.893H10.1737V24.7676C11.277 24.7676 12.1797 24.4166 12.1797 23.0876V8.09285C12.1797 7.6415 12.0543 7.46598 11.5026 7.46598C8.2429 7.46598 7.49066 8.46897 6.83871 13.0577H6.71334L7.21483 7.3406H20.2788L20.7803 13.0577H20.655C20.0782 8.92032 18.9749 7.46598 15.991 7.46598C15.4394 7.46598 15.314 7.6415 15.314 8.09285V23.0876C15.314 24.4166 16.2167 24.7676 17.32 24.7676Z" stroke="var(--stroke-0, #274F66)" stroke-width="0.205491" mask="url(#path-3-outside-2_0_21)"/>
<path d="M33.0684 24.7676V24.893H25.922V24.7676C27.0253 24.7676 27.928 24.4166 27.928 23.0876V9.14599C27.928 7.81702 27.0253 7.46598 25.922 7.46598V7.3406H33.0684V7.46598C31.9651 7.46598 31.0624 7.81702 31.0624 9.14599V15.2141H37.281V9.14599C37.281 7.81702 36.3783 7.46598 35.275 7.46598V7.3406H42.4213V7.46598C41.318 7.46598 40.4153 7.81702 40.4153 9.14599V23.0876C40.4153 24.4166 41.318 24.7676 42.4213 24.7676V24.893H35.275V24.7676C36.3783 24.7676 37.281 24.4166 37.281 23.0876V15.4649H31.0624V23.0876C31.0624 24.4166 31.9651 24.7676 33.0684 24.7676Z" stroke="var(--stroke-0, #274F66)" stroke-width="0.205491" mask="url(#path-3-outside-2_0_21)"/>
<path d="M57.8774 20.1037H57.752C57.752 15.9664 55.3198 15.7156 53.2135 15.7156V23.0876C53.2135 24.4166 54.1162 24.7676 55.2195 24.7676C59.1813 24.7676 60.6106 23.6894 61.3879 18.3485H61.5133L60.8864 24.893H48.0731V24.7676C49.1764 24.7676 50.0791 24.4166 50.0791 23.0876V9.14599C50.0791 7.81702 49.1764 7.46598 48.0731 7.46598V7.3406H60.6106L61.1121 13.0577H60.9867C60.2094 7.79195 58.7801 7.46598 55.0941 7.46598C54.066 7.46598 53.2135 7.86717 53.2135 9.14599V15.4649C55.1192 15.4649 57.752 15.2392 57.752 11.478H57.8774V20.1037Z" stroke="var(--stroke-0, #274F66)" stroke-width="0.205491" mask="url(#path-3-outside-2_0_21)"/>
<path d="M75.3264 16.0667C75.3264 10.9514 79.0625 7.0397 84.0775 7.0397C86.1085 7.0397 88.4154 7.61643 89.945 8.87017L89.0423 13.6344H88.9169C88.9169 9.87316 86.61 7.16508 84.0775 7.16508C80.9431 7.16508 78.5861 11.1269 78.5861 16.0667C78.5861 21.0315 80.9431 25.1939 84.1276 25.1939C86.6602 25.1939 88.8668 23.2381 89.0674 19.0756H89.1928L90.0202 23.3885C88.4656 24.8679 86.1336 25.3193 84.0775 25.3193C78.887 25.3193 75.3264 21.1819 75.3264 16.0667Z" stroke="var(--stroke-0, #274F66)" stroke-width="0.205491" mask="url(#path-3-outside-2_0_21)"/>
<path d="M104.244 6.71373H104.52L110.914 23.2882C111.39 24.4918 112.318 24.7676 113.371 24.7676V24.893H106.049V24.7676C107.102 24.7676 107.955 24.3664 107.554 23.2882L105.974 19.1509H99.8308L98.7776 21.9091C97.8749 24.2912 98.6522 24.7676 101.285 24.7676V24.893H94.7907V24.7676C96.7215 24.7175 97.6242 24.216 98.5519 21.7336L104.244 6.71373ZM99.906 18.9001H105.874L102.865 11.1018L99.906 18.9001Z" stroke="var(--stroke-0, #274F66)" stroke-width="0.205491" mask="url(#path-3-outside-2_0_21)"/>
<path d="M116.92 7.46598V7.3406H122.612L130.536 19.2261V10.4499C130.536 7.3406 128.58 7.46598 127.476 7.46598V7.3406H133.57V7.46598C132.466 7.46598 130.786 7.3406 130.786 10.4499V24.893H130.536L120.079 9.19614V21.7837C120.079 24.893 121.759 24.7676 122.863 24.7676V24.893H116.769V24.7676C117.873 24.7676 119.829 24.893 119.829 21.7837V9.04569C119.227 7.91732 118.475 7.46598 116.92 7.46598Z" stroke="var(--stroke-0, #274F66)" stroke-width="0.205491" mask="url(#path-3-outside-2_0_21)"/>
<path d="M138.082 16.1669C138.082 10.8762 141.417 7.0397 146.833 7.0397C152.224 7.0397 155.609 10.9012 155.609 16.1669C155.609 21.4327 152.249 25.3193 146.833 25.3193C141.392 25.3193 138.082 21.4577 138.082 16.1669ZM141.342 16.1669C141.342 21.4076 143.398 25.1939 146.833 25.1939C150.268 25.1939 152.35 21.3825 152.35 16.1669C152.35 10.9765 150.243 7.16508 146.833 7.16508C143.423 7.16508 141.342 10.9514 141.342 16.1669Z" stroke="var(--stroke-0, #274F66)" stroke-width="0.205491" mask="url(#path-3-outside-2_0_21)"/>
<path d="M167.398 24.7676V24.893H160.252V24.7676C161.355 24.7676 162.258 24.4166 162.258 23.0876V9.14599C162.258 7.81702 161.355 7.46598 160.252 7.46598V7.3406H167.674C172.313 7.3406 173.943 9.44689 173.943 11.8791C173.943 16.6183 168.451 16.9192 165.392 16.9192V23.0876C165.392 24.4166 166.295 24.7676 167.398 24.7676ZM165.392 16.6684C168.752 16.6684 170.683 15.9413 170.683 12.1048C170.683 9.49704 169.63 7.46598 167.248 7.46598C166.22 7.46598 165.392 7.86717 165.392 9.14599V16.6684Z" stroke="var(--stroke-0, #274F66)" stroke-width="0.205491" mask="url(#path-3-outside-2_0_21)"/>
<path d="M189.206 7.46598V7.3406H195.5V7.46598C193.268 7.6415 192.315 8.39375 191.362 10.3747L188.629 16.0416V23.0876C188.629 24.4166 189.532 24.7676 190.635 24.7676V24.893H183.489V24.7676C184.592 24.7676 185.495 24.4166 185.495 23.0876V16.5681L181.232 9.02062C180.53 7.76687 179.953 7.46598 178.449 7.46598V7.3406H186.272V7.46598C185.169 7.46598 184.04 7.69165 184.893 9.17107L188.579 15.5902L191.287 9.94839C192.215 7.99255 191.412 7.46598 189.206 7.46598Z" stroke="var(--stroke-0, #274F66)" stroke-width="0.205491" mask="url(#path-3-outside-2_0_21)"/>
</g>
</g>
</svg>
