<svg preserveAspectRatio="none" width="100%" height="100%" overflow="visible" style="display: block;" viewBox="0 0 25.6335 25.633" fill="none" xmlns="http://www.w3.org/2000/svg">
<g id="Group 9">
<path id="Vector" d="M21.4613 22.2902C16.5518 26.7782 8.98121 26.7298 4.12767 22.2493C-1.3881 17.1574 -1.36767 8.44326 4.13978 3.37326C9.3513 -1.42428 17.5372 -1.06403 22.312 4.19594C27.0407 9.40443 26.688 17.5123 21.4613 22.2902ZM10.3284 12.1578L12.7252 10.0061L13.8272 9.02375C14.0103 8.86027 14.2957 8.82924 14.5098 8.97531L18.9108 11.9761C19.0675 12.0829 19.2226 12.2372 19.399 12.2834C20.1338 12.4741 20.8127 12.7163 21.4818 13.0826L23.3125 14.2391L24.6453 15.1397L25.0298 15.4031C25.8699 11.5122 24.7581 7.49571 22.2038 4.58873C17.2708 -1.02543 8.59826 -1.09506 3.5714 4.42828C0.722693 7.55853 -0.392871 12.0337 0.798378 16.1765L1.26307 15.2699C1.42276 14.9588 1.63392 14.6932 1.98054 14.5758L2.73586 14.32C3.20358 14.2058 3.61227 14.0158 3.98236 13.7078L4.80957 13.0206L7.1898 11.1292C7.32149 11.024 7.5281 10.9847 7.67341 11.0725L9.60635 12.2365C9.84248 12.3788 10.1104 12.353 10.3284 12.1578ZM12.1463 21.1111C12.0161 21.1557 11.9139 20.9779 11.9071 20.8923C11.9003 20.8068 11.9586 20.688 12.0547 20.6486C12.8335 20.3293 12.782 19.577 13.0666 19.6443C13.4041 19.7246 13.3307 20.3747 14.0679 20.6502C14.1155 20.6676 14.1973 20.7485 14.2048 20.7977C14.2117 20.8401 14.1897 20.9347 14.1715 20.9801C14.1186 21.1088 14.0028 21.1459 13.8809 21.0997L13.3421 20.8946C13.3254 21.3343 13.5517 21.6817 13.9316 21.8414L14.363 22.0223C14.438 22.0541 14.4145 22.2599 14.3729 22.3265C14.3312 22.3931 14.2094 22.4847 14.1216 22.4529L13.3504 22.1729C13.3443 22.4408 13.4215 22.7549 13.6592 22.9479C14.1647 23.3573 14.8096 23.0773 14.752 23.5064C14.7308 23.6691 14.6309 23.7774 14.4387 23.7683L13.3542 23.4671V25.2895C14.4993 25.2418 15.5558 25.0428 16.6153 24.7143C16.6456 24.6356 16.6744 24.5229 16.6744 24.4373V22.6777L15.6004 22.9819C15.4884 23.0137 15.334 22.932 15.2879 22.8518C15.2372 22.764 15.2243 22.5816 15.3257 22.5218C15.4143 22.4696 15.5512 22.4491 15.6557 22.4385C16.2445 22.3795 16.6819 21.9277 16.6827 21.3184L16.0031 21.6469C15.9448 21.6749 15.7949 21.69 15.7344 21.6613C15.6784 21.6348 15.6247 21.5425 15.5959 21.4622C15.5528 21.3442 15.6171 21.2185 15.742 21.1913C16.2536 21.0785 16.6888 20.6668 16.6903 20.0916L16.022 20.3391C15.9176 20.3777 15.8071 20.2165 15.7965 20.1363C15.7806 20.0182 15.8472 19.9092 15.9652 19.8668C16.6547 19.6209 16.6153 18.97 16.9045 18.8746C17.2117 18.774 17.1527 19.5459 17.9194 19.8585C18.0662 19.9183 18.1237 20.0644 18.0745 20.1749C18.0064 20.3277 17.883 20.3754 17.7271 20.3141L17.2526 20.1264C17.1769 20.7803 17.6181 21.0157 18.1896 21.2193C18.3296 21.2692 18.3091 21.4448 18.2592 21.5387C18.1964 21.6575 18.0662 21.7165 17.9315 21.6636L17.1973 21.3729C17.3184 22.543 18.2395 22.3629 18.5528 22.5203C18.6633 22.5755 18.6391 22.7662 18.5892 22.8495C18.3999 23.1666 17.7082 22.8215 17.2481 22.6747L17.2571 24.4858C20.9232 23.0758 23.6856 20.0697 24.7959 16.34L23.3125 15.8685L22.4475 15.5582C22.1531 15.453 21.8488 15.3516 21.5347 15.3667C20.7272 15.4053 20.5486 16.1856 20.2443 16.2182C20.124 16.231 19.9696 16.1705 19.8811 16.0827L18.8525 15.0655L17.3714 13.5239C16.9423 13.0773 16.3883 12.8609 15.7738 12.9441L14.9344 13.0576C14.6779 13.0925 14.4803 12.9146 14.4402 12.6558L14.0209 9.95616C14.0103 9.88578 13.9392 9.79344 13.8862 9.77906C13.8416 9.76696 13.7167 9.79344 13.6788 9.8275L10.5085 12.6596C10.4093 12.7481 10.4199 12.9275 10.4926 13.0243C11.1427 13.8879 11.6347 14.8248 12.0274 15.8337C12.1319 16.1016 12.2568 16.3393 12.5095 16.4937L14.2427 17.5517C14.3819 17.6372 14.3933 17.8015 14.3237 17.9089C14.2586 18.0096 14.0951 18.0542 13.9664 17.9755L9.33011 15.1344C9.09625 14.9913 9.11366 14.3458 8.86239 13.9295L8.2645 12.9396L7.58183 11.9201C7.48345 11.7733 7.29878 11.7385 7.15196 11.852L4.91704 13.5821L3.88246 14.3662C3.38143 14.6833 2.85619 14.8877 2.2689 14.9868C2.14629 15.0072 2.01838 15.092 1.92 15.1684C1.57413 15.7406 1.2714 16.3105 1.03224 16.9455C2.27117 20.4526 4.99802 23.2378 8.50592 24.5365L8.51803 22.3757L7.44031 22.686C7.24807 22.6769 7.13379 22.571 7.12698 22.4068C7.12017 22.2425 7.25186 22.1487 7.4229 22.1464C8.01626 22.1396 8.49381 21.7491 8.54755 21.1285C8.17519 21.1209 7.91105 21.4282 7.67644 21.3623C7.51826 21.3177 7.41987 21.0815 7.51296 20.9408C7.62498 20.772 7.96176 20.9113 8.2486 20.551C8.41889 20.3368 8.58085 20.1037 8.5362 19.8101L7.95192 20.0296C7.81342 20.0818 7.69839 19.9342 7.67417 19.826C7.5947 19.4748 8.182 19.6443 8.51879 18.883C8.57933 18.7467 8.71481 18.5484 8.8972 18.5984C9.11366 18.6582 9.14242 19.3091 9.78875 19.5482C9.94541 19.6065 10.0044 19.7473 9.94541 19.8789C9.8773 20.0318 9.75545 20.0659 9.59576 20.0053L9.14393 19.8351C9.04327 20.4526 9.49434 20.7175 10.0355 20.8946C10.2012 20.9491 10.1952 21.1209 10.1339 21.2435C10.0726 21.3661 9.94163 21.4115 9.80086 21.357L9.14469 21.1035C9.11971 21.3676 9.17269 21.6408 9.3672 21.8278C9.75772 22.2024 10.286 22.0912 10.4457 22.2228C10.5456 22.3046 10.5145 22.4809 10.4487 22.5763C10.264 22.8412 9.54883 22.5059 9.09625 22.3508L9.08717 22.7708L9.12955 24.7461C10.3079 25.1086 11.4954 25.2895 12.726 25.2994C12.8335 24.6553 12.8637 24.046 12.8516 23.4186C12.4535 23.492 12.1599 23.6124 11.8367 23.7554C11.6846 23.7955 11.509 23.7812 11.4341 23.6737C11.3592 23.5662 11.3198 23.3717 11.447 23.2847C11.6627 23.1363 12.6723 23.3498 12.8024 22.1812C12.3839 22.2145 12.1001 22.5339 11.8837 22.4408C11.7414 22.3795 11.6581 22.1169 11.7368 22.0238C11.7671 21.9882 11.8473 21.9405 11.9003 21.9315C12.4195 21.8429 12.8251 21.4214 12.7631 20.8999L12.1485 21.1103L12.1463 21.1111Z" fill="var(--fill-0, #C9CBC9)"/>
<path id="Vector_2" d="M8.64176 8.20406C8.37384 8.58928 7.91899 8.76487 7.43538 8.79665C6.63541 8.84963 5.96032 8.31834 5.72721 7.56529C5.56071 7.02719 5.60915 6.51557 5.92929 6.03877C6.15255 5.70576 6.38944 5.3667 6.7618 5.17371C7.2159 4.9391 7.77368 4.8566 8.27319 5.04127C8.02797 5.2002 7.79109 5.27967 7.60793 5.45298C7.11524 5.91843 6.89576 6.60261 7.0108 7.26029C7.09405 7.73709 7.40889 8.08448 7.88039 8.18211C8.11047 8.22979 8.31708 8.21087 8.64252 8.20481L8.64176 8.20406Z" fill="var(--fill-0, #C9CBC9)"/>
<path id="Vector_3" d="M11.538 4.31211L11.379 4.84643C11.2572 4.54067 11.3238 4.25989 11.0914 4.05252L10.8493 3.83607C11.1724 3.74752 11.2118 3.55679 11.3034 3.23363L11.4419 3.59615C11.5107 3.77703 11.6621 3.88223 11.8558 3.95262C11.6916 4.05327 11.5841 4.15847 11.538 4.31211Z" fill="var(--fill-0, #C9CBC9)"/>
<path id="Vector_4" d="M16.1762 6.82615C15.9627 7.0199 15.9915 7.13948 15.8946 7.25074C15.8295 7.32566 15.7819 6.94044 15.5427 6.72247C15.6835 6.57413 15.7841 6.40309 15.8757 6.19042C16.0573 6.59457 16.3389 6.67933 16.1769 6.82615H16.1762Z" fill="var(--fill-0, #C9CBC9)"/>
<path id="Vector_5" d="M19.0014 6.35825C18.8244 6.49751 18.7017 6.66249 18.6215 6.89938C18.5383 6.66628 18.4255 6.52324 18.2476 6.39079C18.3892 6.28332 18.4898 6.15996 18.5383 6.01692L18.5625 5.94578C18.5693 5.92686 18.6329 5.95032 18.642 5.95789C18.6669 6.15996 18.7971 6.25229 19.0014 6.35825Z" fill="var(--fill-0, #C9CBC9)"/>
<path id="Vector_6" d="M23.1501 17.9648C22.9624 18.4507 22.469 19.5867 22.142 19.5996C22.0633 19.6026 21.949 19.5428 21.9089 19.4626C21.8688 19.3824 21.859 19.2151 21.9029 19.1462C22.1829 18.7043 22.4417 18.288 22.6506 17.8104L22.9231 16.9477L22.419 16.7902C22.3062 16.7547 22.2798 16.5813 22.3221 16.4799C22.3615 16.3861 22.4902 16.2945 22.6143 16.3255C23.0653 16.4391 23.664 16.6366 23.5187 17.0135L23.1516 17.9656L23.1501 17.9648Z" fill="var(--fill-0, #C9CBC9)"/>
<path id="Vector_7" d="M3.59668 19.3242C3.6436 19.4203 3.64587 19.5225 3.60652 19.5671C3.56565 19.6141 3.41353 19.661 3.36055 19.6284C3.22129 19.5437 3.12896 19.4127 3.06993 19.2644L2.44781 17.694C2.10194 16.8206 2.23817 16.3945 2.82471 15.6483C2.87542 15.5832 3.023 15.6574 3.06084 15.7088L3.15621 15.8382C3.18118 15.8723 3.12366 15.9646 3.09869 16.0025C2.73465 16.3385 2.62794 16.7987 2.75433 17.2785C2.97229 17.9854 3.26443 18.6423 3.59592 19.3242H3.59668Z" fill="var(--fill-0, #C9CBC9)"/>
<path id="Vector_8" d="M4.53918 20.3392C4.80786 20.5587 4.91684 20.9439 4.77834 21.0324C4.73823 21.0582 4.61259 21.0824 4.56567 21.0604C4.20542 20.8871 3.77857 20.4527 3.85122 20.0909C3.8762 19.9668 4.06238 19.9494 4.13806 20.0115L4.53918 20.3399V20.3392Z" fill="var(--fill-0, #C9CBC9)"/>
<path id="Vector_9" d="M15.4424 18.581C15.4446 18.6385 15.322 18.7369 15.2668 18.7392C14.9807 18.7505 14.3359 18.3418 14.4797 18.0557C14.5062 18.0028 14.6394 17.9362 14.6961 17.9596L15.1374 18.1397C15.3016 18.2063 15.4356 18.3812 15.4431 18.581H15.4424Z" fill="var(--fill-0, #C9CBC9)"/>
<path id="Vector_10" d="M21.7882 19.9284C21.6686 20.4075 21.1941 20.5838 21.104 20.4362C21.014 20.2887 21.1782 19.8209 21.6005 19.7354C21.6966 19.7157 21.8139 19.824 21.7882 19.9284Z" fill="var(--fill-0, #C9CBC9)"/>
</g>
</svg>
