<svg preserveAspectRatio="none" width="100%" height="100%" overflow="visible" style="display: block;" viewBox="0 0 39.063 39.0622" fill="none" xmlns="http://www.w3.org/2000/svg">
<g id="Group 9">
<path id="Vector" d="M32.705 33.9681C25.2233 40.8074 13.6865 40.7336 6.29015 33.9059C-2.11534 26.1462 -2.0842 12.8667 6.3086 5.14056C14.2505 -2.17042 26.7249 -1.62143 34.0013 6.39424C41.2073 14.3315 40.6699 26.6871 32.705 33.9681ZM15.7394 18.5273L19.392 15.2484L21.0713 13.7514C21.3504 13.5022 21.7852 13.4549 22.1116 13.6775L28.8182 18.2505C29.057 18.4131 29.2934 18.6484 29.5621 18.7188C30.682 19.0094 31.7165 19.3785 32.7361 19.9367L35.526 21.699L37.557 23.0714L38.1429 23.4728C39.4231 17.5435 37.7289 11.4228 33.8364 6.99282C26.3189 -1.56261 13.1029 -1.66872 5.44245 6.74831C1.1013 11.5185 -0.59871 18.3382 1.21664 24.6515L1.92478 23.2698C2.16814 22.7958 2.48992 22.391 3.01814 22.2122L4.16917 21.8224C4.88193 21.6482 5.50473 21.3587 6.06871 20.8893L7.3293 19.8421L10.9565 16.9599C11.1572 16.7996 11.4721 16.7396 11.6935 16.8734L14.6391 18.6473C14.999 18.8641 15.4073 18.8249 15.7394 18.5273ZM18.5097 32.1712C18.3113 32.2393 18.1556 31.9683 18.1453 31.8379C18.1349 31.7076 18.2237 31.5265 18.3702 31.4666C19.5569 30.9798 19.4785 29.8334 19.9122 29.9361C20.4266 30.0583 20.3147 31.049 21.438 31.4689C21.5107 31.4954 21.6353 31.6188 21.6468 31.6938C21.6572 31.7583 21.6237 31.9025 21.596 31.9717C21.5153 32.1678 21.3388 32.2243 21.1532 32.1539L20.332 31.8414C20.3066 32.5115 20.6515 33.0409 21.2304 33.2842L21.8878 33.5599C22.002 33.6083 21.9663 33.922 21.9028 34.0235C21.8394 34.125 21.6537 34.2645 21.5199 34.2161L20.3447 33.7894C20.3354 34.1976 20.4531 34.6763 20.8152 34.9704C21.5857 35.5943 22.5683 35.1676 22.4806 35.8215C22.4484 36.0695 22.2961 36.2344 22.0032 36.2206L20.3504 35.7616V38.5388C22.0954 38.4661 23.7055 38.1628 25.3202 37.6623C25.3663 37.5423 25.4101 37.3705 25.4101 37.2401V34.5586L23.7735 35.0223C23.6028 35.0707 23.3676 34.9462 23.2972 34.8239C23.2199 34.6901 23.2003 34.4122 23.3549 34.3211C23.4898 34.2415 23.6986 34.2103 23.8577 34.1942C24.755 34.1042 25.4216 33.4157 25.4228 32.4873L24.3871 32.9878C24.2983 33.0305 24.0699 33.0535 23.9777 33.0097C23.8923 32.9693 23.8104 32.8286 23.7666 32.7064C23.7009 32.5265 23.7989 32.335 23.9892 32.2935C24.7689 32.1216 25.432 31.4942 25.4343 30.6177L24.4159 30.9948C24.2568 31.0537 24.0884 30.808 24.0722 30.6857C24.048 30.5058 24.1495 30.3397 24.3294 30.2752C25.3801 29.9003 25.3202 28.9085 25.7607 28.7631C26.229 28.6097 26.139 29.7861 27.3073 30.2625C27.5311 30.3536 27.6187 30.5762 27.5438 30.7446C27.44 30.9775 27.252 31.0502 27.0144 30.9568L26.2913 30.6708C26.1759 31.6672 26.8483 32.0259 27.7191 32.3362C27.9325 32.4123 27.9013 32.6799 27.8252 32.8229C27.7295 33.0039 27.5311 33.0939 27.3258 33.0132L26.2071 32.5703C26.3916 34.3533 27.7952 34.0789 28.2727 34.3187C28.4411 34.4029 28.4042 34.6936 28.328 34.8204C28.0397 35.3037 26.9856 34.7778 26.2843 34.554L26.2982 37.314C31.8849 35.1653 36.0946 30.5843 37.7865 24.9006L35.526 24.1821L34.2077 23.7092C33.7591 23.5489 33.2955 23.3944 32.8168 23.4174C31.5862 23.4763 31.314 24.6653 30.8504 24.7149C30.667 24.7345 30.4317 24.6423 30.2968 24.5085L28.7294 22.9584L26.4723 20.6091C25.8184 19.9286 24.9742 19.5988 24.0376 19.7256L22.7586 19.8986C22.3676 19.9517 22.0666 19.6806 22.0055 19.2862L21.3665 15.1723C21.3504 15.065 21.242 14.9243 21.1612 14.9024C21.0932 14.8839 20.9029 14.9243 20.8452 14.9762L16.0139 19.292C15.8628 19.4269 15.879 19.7002 15.9897 19.8479C16.9804 21.1638 17.7301 22.5917 18.3286 24.129C18.4878 24.5373 18.6781 24.8995 19.0633 25.1348L21.7045 26.7471C21.9167 26.8774 21.934 27.1277 21.8279 27.2915C21.7287 27.4449 21.4795 27.5129 21.2835 27.393L14.2182 23.0634C13.8618 22.8454 13.8883 21.8616 13.5054 21.2273L12.5943 19.7187L11.554 18.1652C11.404 17.9414 11.1226 17.8884 10.8989 18.0614L7.49308 20.6979L5.91647 21.8927C5.15296 22.376 4.35255 22.6874 3.45756 22.8385C3.27072 22.8696 3.07581 22.9988 2.92587 23.1153C2.3988 23.9872 1.93747 24.8556 1.57302 25.8233C3.46102 31.1678 7.61648 35.4121 12.9622 37.3912L12.9806 34.0985L11.3383 34.5713C11.0453 34.5575 10.8712 34.396 10.8608 34.1457C10.8504 33.8955 11.0511 33.7525 11.3118 33.749C12.216 33.7386 12.9437 33.1435 13.0256 32.1978C12.4582 32.1862 12.0557 32.6545 11.6981 32.5541C11.4571 32.4861 11.3072 32.1263 11.449 31.9117C11.6197 31.6545 12.1329 31.8668 12.5701 31.3178C12.8296 30.9914 13.0764 30.6362 13.0083 30.1887L12.1179 30.5231C11.9069 30.6027 11.7316 30.3778 11.6947 30.2129C11.5736 29.6777 12.4686 29.9361 12.9818 28.7758C13.0741 28.5682 13.2805 28.2661 13.5585 28.3422C13.8883 28.4333 13.9321 29.4252 14.9171 29.7896C15.1558 29.8784 15.2458 30.0929 15.1558 30.2936C15.052 30.5266 14.8663 30.5785 14.623 30.4862L13.9344 30.2267C13.7811 31.1678 14.4684 31.5715 15.2931 31.8414C15.5457 31.9244 15.5364 32.1862 15.443 32.3731C15.3496 32.5599 15.1501 32.6291 14.9355 32.5461L13.9356 32.1597C13.8975 32.5622 13.9783 32.9786 14.2747 33.2634C14.8698 33.8343 15.6748 33.6648 15.9182 33.8655C16.0704 33.99 16.0231 34.2588 15.9228 34.4041C15.6414 34.8078 14.5515 34.2968 13.8618 34.0604L13.8479 34.7005L13.9125 37.7107C15.7083 38.2631 17.5179 38.5388 19.3932 38.5538C19.5569 37.5723 19.6031 36.6439 19.5846 35.6878C18.978 35.7996 18.5305 35.983 18.038 36.201C17.8062 36.2621 17.5386 36.2402 17.4244 36.0764C17.3103 35.9127 17.2503 35.6162 17.444 35.4836C17.7727 35.2576 19.3113 35.5828 19.5097 33.8021C18.8719 33.8528 18.4394 34.3395 18.1095 34.1976C17.8927 34.1042 17.7658 33.704 17.8858 33.5622C17.9319 33.508 18.0542 33.4353 18.1349 33.4215C18.9261 33.2865 19.5443 32.6441 19.4497 31.8495L18.5132 32.1701L18.5097 32.1712Z" fill="var(--fill-0, #274F66)"/>
<path id="Vector_2" d="M13.1694 12.5023C12.7611 13.0893 12.068 13.3569 11.331 13.4053C10.1119 13.486 9.08313 12.6764 8.7279 11.5288C8.47417 10.7088 8.54799 9.92916 9.03585 9.20256C9.37608 8.6951 9.73707 8.1784 10.3045 7.8843C10.9965 7.52677 11.8465 7.40106 12.6077 7.68247C12.234 7.92467 11.873 8.04577 11.5939 8.30988C10.8431 9.01918 10.5087 10.0618 10.684 11.064C10.8108 11.7906 11.2906 12.32 12.0091 12.4688C12.3598 12.5415 12.6746 12.5126 13.1705 12.5034L13.1694 12.5023Z" fill="var(--fill-0, #274F66)"/>
<path id="Vector_3" d="M17.5828 6.57082L17.3406 7.38507C17.155 6.91912 17.2564 6.49124 16.9024 6.17522L16.5333 5.84537C17.0258 5.71043 17.0858 5.41979 17.2253 4.92732L17.4364 5.47976C17.5413 5.75541 17.772 5.91572 18.0672 6.02298C17.817 6.17638 17.6532 6.33669 17.5828 6.57082Z" fill="var(--fill-0, #274F66)"/>
<path id="Vector_4" d="M24.6504 10.402C24.3252 10.6973 24.369 10.8795 24.2214 11.049C24.1222 11.1632 24.0495 10.5762 23.6851 10.244C23.8996 10.018 24.053 9.75731 24.1925 9.43322C24.4693 10.0491 24.8984 10.1783 24.6516 10.402H24.6504Z" fill="var(--fill-0, #274F66)"/>
<path id="Vector_5" d="M28.9565 9.68928C28.6867 9.90149 28.4998 10.1529 28.3776 10.5139C28.2507 10.1587 28.0789 9.9407 27.8078 9.73887C28.0235 9.5751 28.1769 9.3871 28.2507 9.16912L28.2876 9.06071C28.298 9.03188 28.3949 9.06763 28.4087 9.07916C28.4468 9.3871 28.6451 9.52781 28.9565 9.68928Z" fill="var(--fill-0, #274F66)"/>
<path id="Vector_6" d="M35.2778 27.3766C34.9918 28.1171 34.2398 29.8482 33.7416 29.8678C33.6216 29.8724 33.4475 29.7813 33.3864 29.6591C33.3252 29.5368 33.3102 29.2819 33.3771 29.177C33.8039 28.5034 34.1983 27.8691 34.5166 27.1413L34.9318 25.8265L34.1637 25.5866C33.9919 25.5324 33.9515 25.2683 34.0161 25.1138C34.0761 24.9708 34.2721 24.8312 34.4613 24.8785C35.1486 25.0515 36.0609 25.3525 35.8395 25.9269L35.2801 27.3778L35.2778 27.3766Z" fill="var(--fill-0, #274F66)"/>
<path id="Vector_7" d="M5.48118 29.4484C5.55268 29.5949 5.55615 29.7506 5.49617 29.8186C5.43389 29.8901 5.20207 29.9616 5.12134 29.912C4.90913 29.7829 4.76842 29.5833 4.67846 29.3573L3.73042 26.9641C3.20335 25.6332 3.41095 24.9838 4.30478 23.8467C4.38205 23.7475 4.60695 23.8605 4.66462 23.9389L4.80994 24.1361C4.848 24.188 4.76035 24.3288 4.72229 24.3864C4.16753 24.8985 4.00491 25.5997 4.19752 26.3309C4.52968 27.4082 4.97487 28.4092 5.48003 29.4484H5.48118Z" fill="var(--fill-0, #274F66)"/>
<path id="Vector_8" d="M6.91707 30.9953C7.32651 31.3298 7.49259 31.9168 7.28153 32.0518C7.2204 32.091 7.02895 32.1279 6.95744 32.0945C6.40845 31.8303 5.75797 31.1683 5.86869 30.617C5.90675 30.4279 6.19047 30.4014 6.3058 30.4959L6.91707 30.9965V30.9953Z" fill="var(--fill-0, #274F66)"/>
<path id="Vector_9" d="M23.5327 28.3158C23.5361 28.4034 23.3493 28.5533 23.2651 28.5568C22.8291 28.5741 21.8465 27.9513 22.0656 27.5153C22.106 27.4346 22.309 27.3331 22.3955 27.3689L23.0679 27.6434C23.3182 27.7449 23.5223 28.0113 23.5338 28.3158H23.5327Z" fill="var(--fill-0, #274F66)"/>
<path id="Vector_10" d="M33.2024 30.3686C33.0202 31.0986 32.297 31.3674 32.1598 31.1425C32.0225 30.9176 32.2728 30.2048 32.9164 30.0745C33.0628 30.0445 33.2416 30.2094 33.2024 30.3686Z" fill="var(--fill-0, #274F66)"/>
</g>
</svg>
