<svg preserveAspectRatio="none" width="100%" height="100%" overflow="visible" style="display: block;" viewBox="0 0 105.326 9.81472" fill="none" xmlns="http://www.w3.org/2000/svg">
<g id="Group 5">
<path id="Vector" d="M68.5454 2.507C68.5454 2.40979 68.4054 2.31907 68.3237 2.32944L65.8742 7.12484C65.6591 7.5318 65.2819 7.70936 64.8374 7.73139C64.3423 7.75472 63.9483 7.52402 63.7215 7.0717L61.9718 3.5892C61.7942 3.23667 61.6296 2.91525 61.2434 2.70918L61.2408 9.60419L60.2014 9.61067V0.354252C61.084 0.0431991 61.8901 -0.0643733 62.3269 0.77547L64.5185 4.98117L65.2858 6.26685L68.0943 0.876558C68.6594 -0.0915946 69.2932 0.0315337 70.3598 0.312777V9.62881L68.5454 9.63141V2.50829V2.507Z" fill="var(--fill-0, #274F66)"/>
<path id="Vector_2" d="M1.71727 3.48107C1.54879 3.1454 1.39974 2.88229 1.02259 2.7138V9.62566L0 9.62826V0.382208C0.911126 -0.0299371 1.71338 -0.0143869 2.17089 0.861746L4.98851 6.25852L6.02017 4.49588L7.90334 0.879892C8.39584 -0.0649311 9.17736 -0.000128211 10.1598 0.325181V9.62696L8.32974 9.63085V2.39757L8.11718 2.3211L5.92945 6.60456C5.61839 7.21371 5.09868 7.69714 4.37029 7.72565C4.03073 7.73861 3.7132 7.47032 3.56026 7.16316L1.71857 3.47978L1.71727 3.48107Z" fill="var(--fill-0, #274F66)"/>
<path id="Vector_3" d="M45.1414 3.62502C45.6287 6.04864 44.8705 8.40616 42.4313 9.29136C41.563 9.57909 40.6855 9.67759 39.755 9.66463L36.8259 9.62315V0.173627L39.755 0.142523C40.7024 0.132155 41.6031 0.265646 42.4741 0.581884C43.8596 1.08216 44.8485 2.16955 45.1401 3.62242L45.1414 3.62502ZM43.0443 7.02975C43.3982 6.31433 43.4085 5.54966 43.4371 4.80184C43.5057 2.97181 42.6128 1.3647 40.8099 1.02124C40.228 0.909783 39.6383 0.903307 39.0486 1.05754C38.7972 1.12364 38.5444 1.4982 38.5431 1.75741L38.5237 4.92885L38.5522 8.13658C38.5561 8.57854 38.8879 8.83905 39.3065 8.90126C40.7827 9.12029 42.3561 8.42042 43.0443 7.02846V7.02975Z" fill="var(--fill-0, #274F66)"/>
<path id="Vector_4" d="M29.1623 9.81269C27.0446 9.79973 25.2884 8.4972 24.6948 6.50387C24.3319 5.28429 24.389 3.9947 24.875 2.81918C25.5787 1.11617 27.1651 0.0780341 28.9964 0.00415905C31.0364 -0.0774923 32.825 1.08377 33.5197 3.01101C33.9603 4.23448 33.9642 5.56423 33.5287 6.79419C32.8703 8.65402 31.1699 9.82436 29.1623 9.81269ZM31.6313 7.18948L32.0888 4.90972L31.8594 3.49443C31.6158 1.98971 30.7707 0.842708 29.1947 0.824563C28.1709 0.812899 27.296 1.3378 26.8592 2.28003C26.1283 3.85733 26.1335 5.63681 26.7141 7.26724C27.1042 8.36111 28.0438 8.97156 29.1947 8.97415C30.343 8.97674 31.284 8.34815 31.63 7.18948H31.6313Z" fill="var(--fill-0, #274F66)"/>
<path id="Vector_5" d="M94.1728 6.62932C93.552 8.59803 91.8075 9.80725 89.7831 9.81373C87.7586 9.82021 86.0932 8.69653 85.4011 6.84188C84.9138 5.53545 84.9254 4.10331 85.4633 2.81892C86.2306 0.986299 88.0049 -0.0842395 89.9801 0.0064843C91.9851 0.0985041 93.6466 1.37382 94.2065 3.30494C94.5214 4.39233 94.5253 5.51212 94.1728 6.62932ZM92.2404 7.14386L92.6318 5.192L92.4555 3.3516C92.414 2.91483 92.1847 2.46899 91.9747 2.09573C91.5159 1.2818 90.7084 0.837259 89.7844 0.824298C88.7034 0.810041 87.7988 1.39844 87.3776 2.40677C86.6933 4.04628 86.7114 5.90482 87.4268 7.53396C87.8506 8.49952 88.7605 8.97388 89.7805 8.96999C90.9534 8.96481 91.8969 8.3116 92.2404 7.14386Z" fill="var(--fill-0, #274F66)"/>
<path id="Vector_6" d="M104.977 9.62717C104.55 9.59477 104.053 9.52867 103.689 9.30315L101.443 6.36241L99.5574 3.84547C99.2437 3.42814 98.8808 3.09376 98.4713 2.76456L98.4687 9.63106H97.4176V0.299468C98.0721 0.0389609 98.899 0.128386 99.3539 0.746604L103.081 5.81806L104.329 7.35648L104.333 0.254105L105.326 0.2567L105.307 8.79899C105.307 9.0919 105.18 9.36277 104.977 9.62846V9.62717Z" fill="var(--fill-0, #274F66)"/>
<path id="Vector_7" d="M17.1734 9.80825C15.1204 9.73956 13.4511 8.45258 12.8847 6.52016C12.5477 5.37056 12.5763 4.16394 12.9728 3.03637C13.595 1.26726 15.1476 0.138391 17.0088 0.0126737C19.0824 -0.1273 20.9591 1.01582 21.694 2.97545C22.1943 4.31168 22.1671 5.79567 21.5851 7.10079C20.8075 8.84528 19.1148 9.87564 17.1734 9.80954V9.80825ZM17.2939 8.9697C18.4383 9.0034 19.308 8.42924 19.7084 7.41962C20.1089 6.40999 20.3241 5.47554 20.2981 4.43869C20.2761 3.59107 20.0195 2.86918 19.5931 2.15894C19.0228 1.20893 18.0715 0.695695 16.9427 0.856406C16.2907 0.949722 15.6155 1.22837 15.2863 1.8427C14.7821 2.78493 14.186 4.25207 14.3713 5.23836C14.5437 6.15727 14.8171 7.04765 15.2254 7.87583C15.609 8.65346 16.445 8.94378 17.2926 8.9684L17.2939 8.9697Z" fill="var(--fill-0, #274F66)"/>
<path id="Vector_8" d="M77.894 9.81472C75.9266 9.80306 74.2637 8.67419 73.5898 6.85842C73.1025 5.54422 73.118 4.09394 73.6533 2.79918C74.37 1.06506 75.9953 0.026919 77.8603 0.00358998C79.8445 -0.0210351 81.5813 1.10782 82.2824 2.97285C82.7438 4.19762 82.7477 5.54163 82.3058 6.77288C81.6318 8.64827 79.9197 9.82509 77.894 9.81342V9.81472ZM75.6233 7.5207C76.0678 8.4422 76.8766 8.99821 77.837 9.02931C78.7973 9.06042 79.6709 8.58088 80.131 7.72289C81.1199 5.8799 81.1043 3.77122 80.039 1.95934C79.5426 1.11431 78.6003 0.713826 77.6348 0.812326C76.6692 0.910827 75.9901 1.52256 75.5818 2.3974C74.6629 4.3661 74.6564 5.51571 75.6246 7.5207H75.6233Z" fill="var(--fill-0, #274F66)"/>
<path id="Vector_9" d="M52.2905 4.33928C51.8459 5.10396 51.6256 5.94769 51.6606 6.80956L51.7746 9.61033H49.8487L50.0677 7.5859C50.1079 6.05785 49.7178 4.61664 48.8093 3.38798L47.2021 0.396686C47.5974 0.178949 47.9901 0.0934104 48.4451 0.118035C48.7807 0.238568 49.1086 0.448529 49.2875 0.781614L51.2653 4.45204L53.3791 0.475748C53.4828 0.272267 53.6565 0.173766 53.8781 0.167286L54.508 0.307258L53.4193 2.39391L52.2892 4.33669L52.2905 4.33928Z" fill="var(--fill-0, #274F66)"/>
</g>
</svg>
