<svg preserveAspectRatio="none" width="100%" height="100%" overflow="visible" style="display: block;" viewBox="0 0 42.261 9.60676" fill="none" xmlns="http://www.w3.org/2000/svg">
<g id="Group 7">
<path id="Vector" d="M7.10632 9.36587L5.25268 9.38557L3.3906 5.83311C3.13584 5.34613 2.38144 5.22227 2.00142 5.58821C1.79452 5.78807 1.65659 6.18357 1.65519 6.46788L1.63689 9.36164L0 9.35882V0.100488L2.77272 0.253898L4.94444 0.465018C6.41807 0.698658 6.99513 2.29473 6.59822 3.64309C6.20131 4.99144 4.71643 4.8127 5.17808 5.79933L7.10491 9.36446L7.10632 9.36587ZM3.7495 4.39608C4.44902 4.19763 4.92615 3.63324 4.97963 2.97736C5.03593 2.29051 4.70517 1.667 4.07603 1.33765C3.44689 1.0083 2.70093 0.932299 2.00001 1.08149C1.71289 1.14201 1.57214 1.41084 1.60029 1.68952L1.66222 2.31866L1.66785 4.23C1.66926 4.76343 2.9768 4.61424 3.7495 4.39608Z" fill="var(--fill-0, #274F66)"/>
<path id="Vector_2" d="M19.7673 9.11127L17.4788 9.38855L14.5667 9.56026V0.199181L16.8187 0.175248C17.8123 0.165395 18.7666 0.20762 19.7096 0.483484C22.6188 1.26041 23.4 4.45677 22.3022 7.02963C21.8419 8.10916 20.9257 8.82979 19.7673 9.10987V9.11127ZM20.7779 6.49197C21.1072 5.35474 21.0988 4.11617 20.7244 2.99723C20.1487 1.27449 18.3922 0.800165 16.6737 1.03803C16.3669 1.08025 16.2064 1.33782 16.2078 1.64184V8.0036C16.2092 8.33013 16.4105 8.58488 16.7314 8.61866C18.4992 8.80726 20.2613 8.27665 20.7779 6.49197Z" fill="var(--fill-0, #274F66)"/>
<path id="Vector_3" d="M30.396 8.497C31.0716 8.40974 31.4657 7.96357 31.4868 7.31754L31.4741 5.31753L33.187 5.31049L33.0266 7.55541C32.9745 8.28588 32.5692 8.89251 31.895 9.16978C29.4615 10.1705 26.4185 9.45972 25.4051 6.96146C24.776 5.41183 24.8647 3.65249 25.6951 2.19013C26.8773 0.108481 29.9273 -0.657185 31.8119 0.63065C32.3172 0.975481 32.6592 1.50047 32.9492 2.04516C32.9829 2.28303 32.8352 2.65178 32.6832 2.85164C32.5973 2.96283 32.2497 3.0515 32.1216 2.98816C31.7289 2.79252 31.5755 2.32243 31.5164 1.92412C31.4263 1.32313 30.9998 0.954377 30.4016 0.885411C28.7338 0.693995 27.1532 1.86079 26.9266 3.5596C26.7746 4.70247 26.8816 5.88052 27.3334 6.93893C27.8401 8.12684 29.142 8.65745 30.396 8.49559V8.497Z" fill="var(--fill-0, #274F66)"/>
<path id="Vector_4" d="M37.7954 5.74881V8.14291C37.7954 8.34981 38.0122 8.59893 38.2092 8.59893L39.4802 8.60174C40.3655 8.60315 41.1973 8.58204 42.122 8.43707C42.2149 8.52152 42.2698 8.78191 42.2599 8.94236C42.2515 9.08733 42.0671 9.36741 41.8982 9.37445L40.7398 9.4223L36.1599 9.44623L36.1402 8.20344L36.1529 4.63831V0.227295L41.6631 0.245593L42.2275 0.995777L38.4161 1.00985C38.0924 1.00985 37.8137 1.19704 37.8193 1.5292L37.8587 3.7896C37.8658 4.23858 38.2571 4.57779 38.706 4.5229L40.8299 4.26252V5.22804H38.4246C38.1445 5.22804 37.7968 5.37442 37.7968 5.74599L37.7954 5.74881Z" fill="var(--fill-0, #274F66)"/>
<path id="Vector_5" d="M11.2594 9.36532L9.51699 9.37516V0.299798L11.2594 0.298389V9.36532Z" fill="var(--fill-0, #274F66)"/>
</g>
</svg>
