<svg width="1440" height="794" viewBox="0 0 1440 794" fill="none" xmlns="http://www.w3.org/2000/svg">
<g clip-path="url(#clip0_16418_1129)">
<g clip-path="url(#clip1_16418_1129)">
<mask id="mask0_16418_1129" style="mask-type:luminance" maskUnits="userSpaceOnUse" x="-608" y="-101" width="2100" height="896">
<path d="M-607.771 794.001L1491.67 794.001L1491.67 -100.999L-607.77 -100.999L-607.771 794.001Z" fill="white"/>
</mask>
<g mask="url(#mask0_16418_1129)">
<path opacity="0.05" d="M779.874 450.595C778.482 466.133 776.874 482.331 768.525 495.508C760.175 508.685 742.843 517.579 728.603 511.211C704.805 500.56 687.659 476.349 685.518 450.369C683.376 424.391 696.327 397.696 718.063 383.293C728.478 376.396 742.903 382.929 751.11 392.341C759.317 401.759 764.293 413.812 773.396 422.365C781.085 429.592 780.695 441.436 779.874 450.595Z" stroke="#F8F6EE" stroke-width="2.14886" stroke-miterlimit="10"/>
<path opacity="0.05" d="M755.468 363.994C778.178 383.204 796.347 408.61 803.414 437.495C810.481 466.38 805.5 498.788 787.018 522.091C768.535 545.396 735.951 557.736 707.472 549.166C678.994 540.596 658.073 509.658 663.863 480.487C667.887 460.221 652.663 438.172 632.287 434.743C622.672 433.125 615.318 423.07 616.688 413.415C618.059 403.761 627.933 396.154 637.615 397.283C646.025 398.262 650.242 386.153 646.614 378.503C642.987 370.852 635.325 365.982 630.305 359.163C625.28 352.343 624.218 340.724 631.802 336.965C674.415 315.846 723.258 336.739 755.473 363.989L755.468 363.994Z" stroke="#F8F6EE" stroke-width="2.14886" stroke-miterlimit="10"/>
<path opacity="0.05" d="M830.814 443.951C824.743 475.286 818.49 507.154 803.475 535.318C788.46 563.482 763.098 587.898 731.73 593.798C700.362 599.699 664.007 582.207 655.653 551.406C648.437 524.788 623.289 504.584 596.142 501.374C561.709 497.302 546.165 469.429 562.105 438.635C562.458 437.952 562.815 437.275 563.173 436.603C569.7 424.324 577.23 412.121 579.322 398.373C585.002 361.083 610.998 327.525 645.689 312.714C680.382 297.903 722.598 302.334 753.46 324.025C793.816 352.387 840.193 395.527 830.814 443.951Z" stroke="#F8F6EE" stroke-width="2.14886" stroke-miterlimit="10"/>
<path opacity="0.05" d="M1274.38 591.139C1277.89 590.242 1280.18 586.868 1279.69 583.274C1277.93 570.45 1275.15 557.62 1268.34 546.7C1260.49 534.118 1246.02 524.585 1231.35 526.77C1216.68 528.955 1204.96 546.139 1211.55 559.42C1223.16 582.79 1250.1 597.326 1274.38 591.134L1274.38 591.139Z" stroke="#F8F6EE" stroke-width="2.14886" stroke-miterlimit="10"/>
<path opacity="0.05" d="M1391.11 635.486C1409.3 634.924 1425.53 618.379 1425.73 600.172C1425.92 581.964 1413.87 572.189 1391.89 564.109C1352.21 549.535 1324.2 515.856 1285.63 498.573C1254.29 484.533 1214.46 492.442 1190.87 517.397C1167.27 542.352 1161.61 582.553 1177.38 613.057C1193.16 643.56 1229.24 662.169 1263.24 657.342C1310.41 650.638 1356.55 636.542 1391.1 635.481L1391.11 635.486Z" stroke="#F8F6EE" stroke-width="2.14886" stroke-miterlimit="10"/>
<path opacity="0.05" d="M1272.14 677.882C1242.82 683.75 1212.58 683.2 1183.64 675.681L1177.55 674.102C1133.3 662.608 1107.34 610.013 1118.07 565.568C1128.8 521.123 1169.54 487.807 1214.12 477.647C1258.7 467.487 1305.98 477.697 1347.31 497.241C1385.62 515.36 1419.69 541.086 1449.67 572.112C1453.63 576.207 1457.88 579.988 1462.18 583.726C1481.23 600.282 1488.18 629.953 1477.46 652.993C1465.76 678.124 1434.47 692.248 1407.89 684.393C1363.64 671.317 1316.27 669.054 1272.14 677.882Z" stroke="#F8F6EE" stroke-width="2.14886" stroke-miterlimit="10"/>
<path opacity="0.05" d="M1482.15 703.542C1472.29 708.93 1461.13 712.376 1450.1 713.587C1421.46 716.73 1392.98 708.474 1364.82 702.392C1336.65 696.304 1306.26 692.55 1279.82 704.026C1224.65 727.985 1154.51 710.923 1116.5 664.293C1078.49 617.668 1075.93 545.522 1110.52 496.311C1145.12 447.099 1213.87 425.1 1270.62 445.079C1341.13 469.903 1411.64 494.731 1482.15 519.56" stroke="#F8F6EE" stroke-width="2.14886" stroke-miterlimit="10"/>
<path opacity="0.05" d="M1482.15 453.276L1298.61 387.68C1281.51 383.37 1287.11 357.584 1304.4 360.974C1313.35 362.729 1322.28 366.136 1330.58 369.763C1348.2 377.464 1367.04 386.342 1385.84 382.334C1404.65 378.333 1419.36 353.791 1406.64 339.376C1357.84 284.039 1343.15 200.862 1370.02 132.15C1389.92 81.3048 1431.91 40.0908 1482.15 19.0492" stroke="#F8F6EE" stroke-width="2.14886" stroke-miterlimit="10"/>
<path opacity="0.05" d="M1482.15 357.368C1414.27 323.953 1380.87 261.053 1385.88 198.908C1390.64 139.855 1429.46 85.5031 1482.15 59.1011" stroke="#F8F6EE" stroke-width="2.14886" stroke-miterlimit="10"/>
<path opacity="0.05" d="M1482.15 328.901C1443.83 304.706 1417.95 260.801 1417.27 215.293C1416.57 168.421 1442.65 122.447 1482.15 97.5681" stroke="#F8F6EE" stroke-width="2.14886" stroke-miterlimit="10"/>
<path opacity="0.05" d="M1482.15 -30.6312C1475 -28.5673 1468.08 -24.5994 1462.57 -19.7612C1449.93 -8.65377 1440.91 6.41079 1427.09 16.0151C1413.26 25.6194 1391.03 27.0946 1382.11 12.8283C1354.09 -31.9249 1315.79 -70.1671 1271.12 -98.3085" stroke="#F8F6EE" stroke-width="2.14886" stroke-miterlimit="10"/>
<path opacity="0.05" d="M1482.15 483.806C1403.38 457.601 1319.68 441.194 1250.3 396.33C1231.12 383.925 1236.85 357.208 1255.27 348.353C1273.69 339.491 1295.41 345.738 1315.07 351.341C1322.61 353.493 1330.61 355.458 1338.56 356.415C1358.47 358.799 1370.83 335.412 1357.82 320.139C1348.84 309.587 1337.64 300.457 1326.57 292.069C1306.31 276.729 1284.54 261.301 1273.55 238.399C1262.56 215.491 1267.55 182.621 1290.78 172.334C1348.07 146.955 1377.27 71.931 1352.21 14.5017C1327.15 -42.9266 1252.28 -72.539 1194.72 -47.7981C1135 -22.1225 1058.66 -44.7489 1022.07 -98.3081" stroke="#F8F6EE" stroke-width="2.14886" stroke-miterlimit="10"/>
<path opacity="0.05" d="M1482.15 727.633C1397.67 721.342 1312.55 723.626 1228.54 734.453C1147.26 744.921 1064 679.352 1055.13 597.893C1046.25 516.433 1113.44 434.474 1195.06 427.198C1223.01 424.704 1229.46 387.376 1230.22 359.327C1230.65 343.95 1235.13 325.764 1243.62 313.396C1253.18 299.488 1255.53 281.99 1250.79 265.798C1245.37 247.277 1246.33 226.075 1252.06 207.411C1261.87 175.417 1282.67 148.178 1299.52 119.27C1316.38 90.3573 1329.8 56.6847 1322.63 23.9962C1315.46 -8.6922 1280 -36.4598 1248.72 -24.5712C1158.5 9.70202 1048.29 -23.1508 988.779 -98.3082" stroke="#F8F6EE" stroke-width="2.14886" stroke-miterlimit="10"/>
<path opacity="0.05" d="M938.215 793.45C920.222 758.676 909.655 708.413 913.651 681.279C915.616 667.965 906.957 653.857 894.194 649.581C881.43 645.298 866.018 651.331 859.556 663.143C833.633 710.494 801.466 754.421 764.176 793.45" stroke="#F8F6EE" stroke-width="2.14886" stroke-miterlimit="10"/>
<path opacity="0.05" d="M986.089 793.45C976.832 779.663 974.382 762.391 970.689 727.776C967.887 701.511 959.218 676.347 953.318 650.605C947.418 624.857 935.572 598.312 912.532 585.399C889.492 572.481 853.936 581.084 847.27 606.645C831.232 668.185 794.162 724.039 743.678 762.721C716.489 783.559 677.443 766.844 648.613 748.345C619.776 729.846 584.523 709.101 552.61 724.98C501.401 741.993 439.342 706.647 427.844 653.919C425.68 643.978 409.607 641.352 404.396 650.087C367.747 711.38 313.037 761.631 249.141 793.45" stroke="#F8F6EE" stroke-width="2.14886" stroke-miterlimit="10"/>
<path opacity="0.05" d="M663.728 793.45C640.231 761.092 586.054 765.771 450.318 736.225C396.64 724.546 347.753 753.111 306.603 793.45" stroke="#F8F6EE" stroke-width="2.14886" stroke-miterlimit="10"/>
<path opacity="0.05" d="M544.018 793.45C509.128 763.591 448.93 756.997 424.718 759.221C399.625 761.527 375.762 774.269 359.496 793.45" stroke="#F8F6EE" stroke-width="2.14886" stroke-miterlimit="10"/>
<path opacity="0.05" d="M1482.15 774.439C1369.72 770.559 1332.49 775.474 1159.92 757.289C1112.75 752.319 1065.79 732.273 1039.26 692.952C1012.73 653.632 1007.13 601.014 1024.78 556.988C1032.27 538.317 1004.99 524.981 988.566 536.595C972.372 548.048 952.205 541.879 941.506 526.467C930.805 511.05 926.045 491.098 911.447 479.31C899.455 469.623 877.234 473.365 870.426 484.356C865.142 492.887 859.517 501.194 853.033 508.854C835.596 529.478 822.067 553.41 813.486 579.02C800.056 619.133 759.975 648.777 717.688 649.889C675.399 650.996 633.827 623.486 618.312 584.133C610.066 563.229 582.788 559.415 560.403 557.45C538.024 555.485 510.426 547.096 507.548 524.811C499.863 465.28 503.579 399.606 540.28 352.112C574.185 308.239 615.906 273.532 670.336 263.129C686.743 259.992 728.674 265.704 743.92 272.54C768.732 283.663 785.844 281.952 790.98 258.852C800.887 214.264 801.878 196.624 815.242 152.581C820.503 135.243 827.505 118.484 835.915 102.434C854.178 67.5709 867.14 29.9239 874.146 -8.8071C879.161 -36.493 900.423 -60.6118 927.261 -69.044C948.738 -75.7914 973.022 -72.2683 991.092 -61.2006C1002.67 -54.1051 1015.01 -48.3762 1027.65 -43.4274C1068.82 -27.3067 1105.7 -0.226731 1133.17 34.4322C1141.36 44.779 1144.29 59.0894 1140.81 71.8203C1137.97 82.2014 1130.93 91.3212 1121.75 96.8964C1102.53 108.577 1118.59 138.001 1138.47 127.471C1138.77 127.311 1139.07 127.147 1139.36 126.976C1148 121.946 1153.69 113.068 1157.78 103.948C1160.69 97.4304 1162.96 90.6281 1165.53 84.2707C1167.4 79.6474 1169.15 74.9748 1170.63 70.2075C1181.61 34.6955 1213.11 6.06408 1249.73 -0.86492C1275.01 -5.64828 1298.31 19.7201 1299.82 45.4011C1301.33 71.0832 1287.17 95.0913 1270.79 114.927C1254.4 134.765 1235.11 152.614 1223.01 175.318C1214.55 191.174 1210.35 210.56 1213.97 227.738C1218.5 249.209 1218.51 271.385 1214.05 292.867L1209.85 313.149C1201.99 351.039 1180.54 384.739 1149.55 407.917L1112.1 435.921C1098.52 446.082 1086.81 458.531 1077.51 472.709L1071.64 481.637C1052.1 511.419 1041.85 546.342 1042.21 581.964L1042.37 597.42C1042.53 613.238 1042.36 628.033 1044.6 642.139C1047.5 660.435 1056.74 677.123 1070.39 689.656L1072.41 691.505C1076.18 694.972 1079.59 698.803 1082.76 702.832C1095.15 718.59 1112.73 729.494 1132.4 733.561C1135.66 734.233 1138.89 735.009 1142.06 736.005L1143.42 736.434C1162.89 742.571 1183.1 746.099 1203.49 746.903C1218.33 747.492 1233.24 747.937 1236.67 747.893C1265.39 747.536 1334.21 745.031 1343.08 744.866L1482.15 742.307" stroke="#F8F6EE" stroke-width="2.14886" stroke-miterlimit="10"/>
<path opacity="0.05" d="M950.659 64.4951C945.821 76.9778 958.513 89.1145 970.854 83.9239C975.813 81.8384 980.772 79.7358 985.522 77.2474C998.606 70.3893 1011.03 58.7543 1011.61 43.9874C1012.29 26.3195 991.577 16.1424 977.899 27.3487C965.68 37.3603 956.119 50.4157 950.659 64.4951Z" stroke="#F8F6EE" stroke-width="2.14886" stroke-miterlimit="10"/>
<path opacity="0.05" d="M107.295 793.45C104.823 786.372 100.322 780.064 94.2188 775.397L94.0361 775.265C88.073 770.708 81.9488 765.831 78.79 759.028C75.6312 752.22 76.5015 742.929 82.7117 738.729C89.169 734.37 97.8396 737.128 105.07 740.006L171.932 766.602C183.547 771.22 190.574 782.002 191.165 793.45" stroke="#F8F6EE" stroke-width="2.14886" stroke-miterlimit="10"/>
<path opacity="0.05" d="M1058.59 793.45C1036.28 770.752 1012.26 742.984 998.401 721.414C979.148 691.434 968.256 654.271 977.018 619.732C979.418 610.272 982.693 598.675 975.592 591.97C970.001 586.698 961.199 587.865 953.642 586.444C939.343 583.748 929.203 571.452 919.622 560.499C910.033 549.54 897.819 538.367 883.289 539.232C864.608 540.337 853.501 560.004 845.9 577.104C829.31 614.405 812.721 651.705 796.132 689.012C767.566 726.725 716.625 746.061 673.116 733.209C654.342 727.661 637.554 717.005 619.66 709.052C601.772 701.104 581.346 695.853 562.71 701.853C553.859 704.698 545.895 709.943 536.923 712.376C512.782 718.926 487.761 703.592 471.573 684.521C442.132 649.845 431.124 600.37 443.073 556.481C445.192 548.693 448.016 540.723 446.733 532.758C445.451 524.789 438.163 517.061 430.265 518.735C423.165 520.237 416.419 528.537 410.327 524.58C407.619 522.819 406.749 519.296 404.858 516.665C398.401 507.655 382.703 513.225 378.395 523.434C374.086 533.645 377.073 545.253 379.082 556.151C385.884 592.934 380.63 631.841 364.331 665.51C348.021 699.178 320.752 727.424 287.681 744.899C255.512 762.116 213.158 759.331 176.123 747.91C124.281 731.921 77.447 700.031 43.581 657.645C39.5089 652.548 35.5443 647.231 30.2796 643.378C25.0149 639.531 18.0955 637.312 11.8746 639.295C0.109582 643.047 -4.62863 659.719 -16.8449 661.547C-28.3843 663.269 -39.2896 650.186 -50.2488 654.215C-55.9433 656.312 -59.199 662.708 -59.2634 668.779C-59.3386 674.855 -56.8245 680.651 -53.9558 686.006C-39.6981 712.624 -15.1258 733.545 13.4326 743.364C22.9198 746.628 32.8045 748.708 42.1413 752.379C51.4888 756.05 60.5033 761.582 65.9184 770.031C70.3236 776.894 71.8063 785.97 68.9913 793.45" stroke="#F8F6EE" stroke-width="2.14886" stroke-miterlimit="10"/>
<path opacity="0.05" d="M189.274 -98.3083C162.704 -54.4414 136.133 -10.5746 109.563 33.2868C99.8497 49.3141 86.3333 67.445 67.6383 66.1622C56.4212 65.3972 47.1381 57.5538 38.7253 50.1016C22.0179 35.296 5.29989 20.4903 -11.4075 5.6847C-15.5548 2.00801 -19.9492 -2.07696 -20.9592 -7.5254C-22.2378 -14.4436 -17.3706 -21.3243 -11.1711 -24.654C-4.98243 -27.989 2.28064 -28.5617 9.29666 -29.0678C33.0845 -30.774 57.6997 -32.6348 78.7371 -43.8852C94.0584 -52.0852 106.543 -76.5672 110.433 -98.3083" stroke="#F8F6EE" stroke-width="2.14886" stroke-miterlimit="10"/>
<path opacity="0.05" d="M237.129 -19.0671C240.116 -25.1161 236.505 -33.0143 230.489 -36.0581C224.461 -39.102 216.983 -37.9738 211.106 -34.6549C205.229 -31.336 200.706 -26.096 196.612 -20.7346C177.992 3.65819 166.12 32.4056 154.451 60.7846C150.798 69.6733 147.79 81.491 155.225 87.5787C159.759 91.2983 166.635 90.8911 171.825 88.1449C177.014 85.3986 180.893 80.7528 184.589 76.1908C209.838 44.9937 223.967 7.61103 237.129 -19.0671Z" stroke="#F8F6EE" stroke-width="2.14886" stroke-miterlimit="10"/>
<path opacity="0.05" d="M228.126 -98.3085C186.427 -55.9556 152.604 -5.86353 128.945 48.6702C122.294 64.0206 113.903 81.9034 97.4533 85.0074C77.9954 88.6788 57.6028 68.7545 39.8962 77.6433C30.0437 82.591 24.7038 95.394 13.8305 97.2645C2.25892 99.2522 -7.15318 87.0005 -8.96897 75.4031C-10.7955 63.8057 -8.13081 51.7914 -10.4731 40.2875C-14.4592 20.6544 -31.7791 6.93289 -48.2716 -4.43243C-82.3525 -27.913 -118.067 -49.0202 -155.059 -67.5573C-169.865 -74.972 -185.745 -82.1491 -202.248 -80.8501C-218.751 -79.5565 -235.512 -66.6441 -235.104 -50.0935C-234.374 -20.2727 -185.852 -11.8578 -181.372 17.6385C-178.192 38.5866 -200.733 55.308 -221.813 57.4601C-242.894 59.6121 -263.91 52.7541 -285.108 53.0958C-325.84 53.7501 -363.413 80.7752 -404.047 77.9344C-422.474 76.6472 -439.847 69.2551 -456.823 61.9619C-504.625 41.4328 -552.426 20.8972 -600.228 0.361669L-605.879 -3.71689" stroke="#F8F6EE" stroke-width="2.14886" stroke-miterlimit="10"/>
<path opacity="0.05" d="M-605.954 35.7863C-605.954 35.7863 -605.911 35.7916 -605.879 35.797C-563.364 41.8235 -521.751 54.1579 -482.824 72.2771C-450.269 87.4298 -415.597 107.184 -380.721 98.6308C-366.56 95.1571 -353.871 87.1934 -339.85 83.247C-325.818 79.2953 -308.52 80.5449 -299.699 92.1519C-295.723 97.3812 -293.746 104.349 -288.31 108.031C-280.531 113.304 -269.582 109.023 -263.007 102.302C-256.431 95.5815 -252.273 86.7637 -245.515 80.2193C-225.391 60.7195 -190.085 67.583 -168.113 50.1901C-146.646 33.1883 -142.724 -3.24239 -116.712 -11.8067C-90.3782 -20.487 -66.4615 7.66098 -57.7156 33.9748C-48.9805 60.2898 -44.3174 91.3655 -21.2279 106.716C3.69886 123.289 36.7805 112.848 66.6711 114.229C123.014 116.827 170.354 166.809 179.712 222.432C189.059 278.05 165.465 335.699 127.226 377.15C88.9762 418.6 37.5541 445.691 -15.2327 465.56C-52.6336 479.64 -93.8272 490.538 -132.184 479.31C-146.184 475.209 -161.677 468.351 -174.485 475.352C-188.721 483.151 -191.45 504.369 -205.976 511.618C-215.764 516.505 -227.615 513.324 -238.284 515.702C-253.111 519.005 -263.727 532.891 -267.638 547.564C-271.559 562.239 -270.034 577.743 -268.476 592.851C-261.589 659.719 -254.691 726.582 -247.814 793.45" stroke="#F8F6EE" stroke-width="2.14886" stroke-miterlimit="10"/>
<path opacity="0.05" d="M19.3958 793.45C16.1618 780.785 4.66539 770.322 -7.70129 764.752C-22.8937 757.9 -39.8804 756.067 -55.4704 750.178C-71.0604 744.283 -86.3065 732.328 -88.2297 715.772C-89.3257 706.382 -86.0164 696.365 -89.7125 687.663C-96.1053 672.627 -121 666.671 -118.625 650.506C-116.896 638.76 -101.811 635.155 -89.9382 635.095C-63.6576 634.968 -33.6272 637.467 -15.0396 618.879C-4.10189 607.954 1.76439 590.512 16.5485 586.032C28.883 582.295 42.2167 589.994 49.7915 600.414C57.3769 610.833 60.8151 623.591 65.6178 635.54C89.4271 694.747 152.647 730.578 216.414 733.17C260.605 734.965 292.441 717.258 314.66 695.595C343.336 667.628 359.507 629.244 360.302 589.197C361.011 553.228 359.593 532.016 361.956 484.555C363.224 459.302 366.684 430.071 388.097 416.614C406.996 404.73 433.221 411.33 449.519 426.576C465.822 441.822 474.094 463.694 479.99 485.22C487.414 512.35 491.912 540.277 493.375 568.369C493.986 580.088 495.093 593.765 504.951 600.127C518.717 609.017 535.796 596.346 551.867 593.17C569.272 589.736 587.028 598.207 600.595 609.627C614.168 621.049 624.951 635.447 638.226 647.209C674.421 679.27 733.105 687.471 771.684 658.322C813.146 626.987 821.22 565.211 861.653 532.561C873.779 522.769 891.056 516.132 904.788 523.496C917.866 530.508 923.178 547.807 936.679 553.955C954.82 562.216 981.355 547.631 993.702 563.279C999.844 571.061 998.226 582.14 997.098 591.987C991.726 638.738 1005.28 687.383 1034.06 724.617C1052.04 747.888 1082.24 764.862 1113.74 775.925C1136.84 784.044 1160.96 788.893 1185.37 790.781L1219.94 793.45" stroke="#F8F6EE" stroke-width="2.14886" stroke-miterlimit="10"/>
<path opacity="0.05" d="M241.502 524.634C241.61 517.115 241.674 509.328 238.623 502.454C235.582 495.578 228.512 489.876 221.067 490.928C213.18 492.045 208.12 499.838 205.186 507.241C199.642 521.238 197.859 536.704 200.072 551.593C200.975 557.636 202.586 563.74 206.175 568.688C209.753 573.637 215.619 577.258 221.711 576.85C233.089 576.091 239.138 562.903 240.363 551.566C241.567 540.398 241.427 529.104 241.491 524.634L241.502 524.634Z" stroke="#F8F6EE" stroke-width="2.14886" stroke-miterlimit="10"/>
<path opacity="0.05" d="M239.257 474.989C229.501 469.259 216.457 471.835 207.572 478.825C198.686 485.816 193.335 496.383 189.715 507.094C182.913 527.183 181.291 548.995 185.03 569.872C187.168 581.827 191.724 594.387 201.92 600.97C215.984 610.045 236.023 603.628 246.584 590.655C257.157 577.677 260.143 560.13 260.659 543.404C261.454 518.277 259.778 487.048 239.257 474.989Z" stroke="#F8F6EE" stroke-width="2.14886" stroke-miterlimit="10"/>
<path opacity="0.05" d="M230.629 452.499C201.093 451.052 186.867 469.176 173.19 495.397C159.512 521.618 159.437 553.597 168.87 581.623C174.726 599.016 185.191 616.259 202.07 623.475C220.046 631.159 241.996 625.226 256.243 611.84C270.49 598.454 277.699 578.849 279.365 559.371C281.03 539.891 277.646 520.347 273.412 501.264C270.963 490.223 268.244 479.017 262.475 469.286C253.525 454.2 233.659 452.642 230.629 452.494L230.629 452.499Z" stroke="#F8F6EE" stroke-width="2.14886" stroke-miterlimit="10"/>
<path opacity="0.05" d="M243.082 431.402C222.529 423.063 198.107 428.969 180.4 442.333C162.693 455.697 150.886 475.506 142.494 496.035C132.642 520.133 126.872 546.259 128.838 572.217C130.794 598.174 140.904 623.954 159.373 642.3C177.843 660.644 205.026 670.732 230.63 666.038C250.979 662.306 269.105 649.664 281.676 633.24C294.257 616.815 301.607 596.814 305.227 576.443C310.417 547.245 308.064 516.384 296.159 489.222C284.244 462.06 262.293 439.201 243.072 431.407L243.082 431.402Z" stroke="#F8F6EE" stroke-width="2.14886" stroke-miterlimit="10"/>
<path opacity="0.05" d="M-211.101 793.45C-212.004 733.792 -221.888 654.221 -225.853 633.542C-231.365 604.757 -231.655 572.652 -214.625 548.792C-198.369 526.011 -168.919 515.427 -140.93 515.823C-112.952 516.22 -85.9944 526.121 -60.3907 537.431C-31.0266 546.673 -5.64848 534.503 15.5608 522.599C43.1091 507.132 70.6682 491.66 98.2166 476.189C122.617 462.483 147.834 448.079 164.144 425.326C187.502 392.721 188.372 349.167 205.606 312.951C221.948 278.606 251.849 253.012 275.541 223.246C291.421 203.295 304.937 175.664 292.71 153.286C282.116 133.928 256.545 127.362 244.178 109.088C232.37 91.6632 235.636 67.9237 244.028 48.6269C252.43 29.3301 265.355 12.1576 272.693 -7.56897C283.609 -36.9213 280.709 -71.0022 265.462 -98.3078" stroke="#F8F6EE" stroke-width="2.14886" stroke-miterlimit="10"/>
<path opacity="0.05" d="M-294.972 793.45C-294.638 788.271 -293.929 783.097 -292.973 778.044C-292.296 774.489 -290.985 770.273 -289.331 765.809C-278.329 736.187 -274.364 704.428 -278.178 673.055C-284.077 624.576 -293.446 553.911 -276.61 526.33C-260.772 500.373 -194.287 461.173 -143.692 447.392C-93.1076 433.61 -40.5572 428.568 10.5964 417.021C31.9131 412.21 67.8957 384.893 54.0678 339.37C46.8046 315.466 66.1765 291.701 78.8656 270.185C91.5761 248.67 102.6 221.975 91.6728 199.508C78.8871 173.216 44.0648 167.948 14.8403 168.68C-14.3949 169.417 -47.498 171.372 -68.5246 151.057C-91.0447 129.305 -93.1291 87.1936 -122.719 76.9725C-144.917 69.3 -168.167 85.8666 -182.769 104.256C-197.381 122.639 -209.361 144.803 -230.42 155.195C-259.988 169.791 -298.238 156.341 -326.785 172.858C-335.896 178.13 -343.149 186.051 -351.486 192.491C-359.824 198.925 -370.192 204.054 -380.571 202.238C-390.94 200.428 -399.836 189.023 -395.764 179.309C-390.456 166.654 -368.473 164.579 -368.086 150.863C-367.786 140.213 -382.065 135.204 -392.336 138.023C-402.619 140.841 -411.547 148.013 -422.13 149.245C-442.652 151.645 -457.995 132.023 -475.239 120.652C-494.601 107.888 -518.603 105.136 -541.156 99.6816C-556.885 95.8781 -586.153 84.2593 -605.879 70.5109" stroke="#F8F6EE" stroke-width="2.14886" stroke-miterlimit="10"/>
<path opacity="0.05" d="M1078.71 152.371C1096.08 167.282 1124.36 167.117 1143.51 153.346C1164.02 138.605 1175.46 114.713 1187.01 92.2567C1198.56 69.8 1212.32 46.5408 1234.94 35.3119C1242.94 31.3387 1252.8 29.1748 1260.63 33.4682C1276.59 42.2087 1270.47 66.6799 1260.15 81.6725C1243.49 105.89 1221.53 126.001 1203.93 149.547C1186.33 173.094 1172.88 202.121 1177.36 231.177C1179.92 247.833 1188.23 263.431 1188.91 280.268C1190.02 307.953 1170.72 331.769 1152.52 352.662C1124.02 385.366 1095.52 418.076 1067.02 450.782C1047.43 473.26 1023.21 497.758 993.476 495.485C951.226 492.254 924.086 436.135 881.986 440.93C861.708 443.241 845.774 460.001 836.78 478.312C827.781 496.63 823.95 517.011 816.636 536.061C804.339 568.111 780.992 596.902 749.491 610.552C717.991 624.201 678.252 620.426 653.11 597.045C634.935 580.142 625.341 554.885 605.086 540.536C583.246 525.064 551.136 523.842 535.911 501.826C520.582 479.655 531.117 449.543 542.037 424.896C558.235 388.338 575.023 350.901 603.182 322.506C631.341 294.11 673.783 276.294 711.953 288.21C737.779 296.274 765.756 316.776 788.571 302.24C798.891 295.662 804.092 283.62 808.715 272.287C826.108 229.647 843.501 187.007 860.894 144.363C876.729 105.548 892.74 66.0191 896.577 24.2764C898.112 7.59376 897.886 -10.0516 906.193 -24.5994C918.764 -46.6317 947.925 -54.5792 972.853 -49.8893C997.78 -45.2059 1019.53 -30.5818 1040.49 -16.2876C1056.02 -5.69802 1071.8 5.11181 1083.52 19.8014C1095.25 34.4921 1102.52 53.9103 1098.37 72.2443C1094.9 87.5668 1084.17 100.028 1076.66 113.832C1069.94 126.195 1067.4 142.668 1078.71 152.376L1078.71 152.371Z" stroke="#F8F6EE" stroke-width="2.14886" stroke-miterlimit="10"/>
<path opacity="0.05" d="M1042.22 43.1944C1038.55 13.0759 1002 -4.99276 972.775 3.16968C943.554 11.3375 922.985 38.5098 913.331 67.2744C903.682 96.038 902.89 126.872 899.967 157.072C897.044 187.267 891.441 218.42 873.894 243.166C856.105 268.253 826.229 286.95 820.989 317.254C817.279 338.699 827.748 360.632 843.093 376.065C858.438 391.499 878.198 401.609 897.606 411.467C934.18 430.053 975.609 449.126 1014.72 436.735C1045.3 427.048 1066.91 400.123 1084.44 373.263C1102.63 345.413 1118.55 316.088 1132.01 285.667C1143.91 258.764 1151.74 222.284 1128.67 204.043C1114.45 192.804 1094.22 193.993 1077.39 187.284C1051.55 176.991 1036.56 148.645 1034.04 120.955C1031.52 93.2638 1044.98 65.8046 1042.22 43.189L1042.22 43.1944Z" stroke="#F8F6EE" stroke-width="2.14886" stroke-miterlimit="10"/>
<path opacity="0.05" d="M1010.75 161.304C1023.41 192.836 1052.2 217.39 1085.35 224.908C1093.26 226.703 1102.39 228.25 1106.61 235.173C1110.84 242.142 1107.93 251.096 1104.78 258.621C1088.44 297.672 1067.1 335.99 1034.13 362.542C1001.16 389.093 954.556 401.84 915.339 385.906C876.122 369.972 850.98 320.524 869.259 282.348C884.422 250.684 924.3 230.726 925.697 195.644C926.303 180.502 919.104 165.185 923.045 150.556C928.456 130.498 954.159 121.197 973.798 127.977C993.436 134.753 1007.38 152.933 1010.75 161.31L1010.75 161.304Z" stroke="#F8F6EE" stroke-width="2.14886" stroke-miterlimit="10"/>
<path opacity="0.05" d="M-347.457 793.45C-335.37 774.803 -323.283 756.155 -311.195 737.508C-301.676 722.817 -291.759 706.614 -293.435 689.182C-300.333 631.314 -309.412 570.565 -283.174 520.133C-264.339 483.927 -229.463 458.383 -192.32 441.475C-155.177 424.561 -115.166 415.111 -76.2606 402.776C-50.6032 394.636 -24.43 384.63 -5.69198 365.294C8.83431 350.317 17.7199 330.911 26.3368 311.911C34.0083 294.975 41.7978 277.66 43.6995 259.16C45.6013 240.655 40.616 220.423 26.412 208.402C-1.70583 184.581 -47.3798 203.807 -80.0855 186.816C-95.2994 178.912 -105.549 164.239 -117.293 151.755C-129.026 139.267 -144.895 127.983 -161.86 130.422C-190.762 134.566 -201.722 173.579 -229.012 183.953C-255.046 193.85 -286.902 174.228 -311.109 187.999C-326.055 196.503 -332.673 215.233 -347.253 224.353C-369.44 238.234 -405.315 227.392 -419.369 249.473C-432.982 270.867 -409.946 297.974 -412.503 323.205C-415.082 348.722 -442.201 363.703 -466.676 371.337C-509.148 384.574 -554.339 389.16 -598.573 384.421L-605.879 383.523" stroke="#F8F6EE" stroke-width="2.14886" stroke-miterlimit="10"/>
<path opacity="0.05" d="M-117.648 731.304C-122.397 749.076 -148.398 747.084 -150.322 728.789C-151.246 719.966 -153.513 711.165 -156.639 703.008C-165.439 680.1 -180.073 659.807 -189.076 636.982C-198.091 614.157 -200.551 586.285 -185.885 566.613C-165.557 539.341 -124.449 541.036 -91.3998 549.077C-58.3396 557.118 -21.852 568.407 8.08157 552.253C18.3746 546.7 27.1097 538.153 38.1978 534.453C63.0601 526.159 89.2655 545.445 102.567 568.034C115.868 590.616 121.66 617.19 136.336 638.898C154.849 666.263 187.415 683.546 220.453 683.546C253.481 683.546 286.047 666.258 304.549 638.887C334.762 594.222 325.135 534.772 314.316 481.95C308.277 452.466 298.135 418.099 269.609 408.5C256.006 403.921 239.417 405.698 229.113 395.703C215.232 382.24 223.204 359.064 231.971 341.83C261.744 283.344 295.116 221.15 353.672 191.51C368.553 183.976 384.68 178.813 398.712 169.775C412.744 160.738 424.909 146.526 425.663 129.854C426.819 104.338 401.796 78.3644 414.452 56.1775C423.06 41.1021 445.418 39.2197 460.608 47.625C475.799 56.0292 485.481 71.5117 494.496 86.3399C518.373 125.605 542.251 164.871 565.918 207.714C583.426 239.406 573.101 279.008 542.674 298.624C522.05 311.921 505.307 328.984 498.856 352.348C495.62 364.082 495.097 377.193 487.501 386.704C476.834 400.057 456.679 400.734 440.028 396.876C423.379 393.018 406.942 385.779 389.934 387.459C365.888 389.824 346.538 410.267 338.845 433.174C331.163 456.082 333.064 481.048 336.718 504.936C340.381 528.823 345.71 552.721 344.582 576.862C341.671 639.74 289.324 696.717 226.921 704.945C164.508 713.174 99.1932 671.718 80.0683 611.746C76.3293 600.023 74.159 587.721 68.8191 576.63C63.4792 565.54 54.0565 555.44 41.9047 553.508C14.1844 549.105 -1.53447 585.52 -27.2671 596.732C-44.9629 604.443 -65.2267 599.252 -84.2549 595.993C-103.272 592.736 -125.663 592.664 -138.492 607.078C-150.848 620.96 -148.839 642.645 -141.694 659.802C-134.56 676.963 -123.139 692.33 -118.132 710.229C-116.316 716.707 -115.66 723.813 -117.659 731.304L-117.648 731.304Z" stroke="#F8F6EE" stroke-width="2.14886" stroke-miterlimit="10"/>
<path opacity="0.05" d="M512.745 159.587C503.096 147.847 487.211 139.899 472.587 144.027C458.057 148.134 448.886 162.592 444.208 176.947C439.529 191.301 437.9 206.685 431.439 220.324C406.953 272.045 330.153 273.405 293.461 317.316C283.168 329.628 277.872 350.669 290.915 360.01C297.394 364.644 306.032 364.429 313.994 364.022C343.111 362.531 372.228 361.04 401.345 359.547C417.31 358.727 434.146 357.638 447.444 348.76C458.43 341.428 465.547 329.705 472.317 318.361C490.916 287.192 509.508 256.023 528.106 224.853C530.898 220.175 533.979 215.265 534.095 209.822C534.689 182.247 522.388 171.327 512.739 159.587L512.745 159.587Z" stroke="#F8F6EE" stroke-width="2.14886" stroke-miterlimit="10"/>
<path opacity="0.05" d="M389.912 302.152C384.164 304.595 377.943 306.098 372.807 309.643C367.672 313.187 363.793 319.671 365.748 325.593C368.348 333.464 378.545 335.137 386.829 335.451C398.013 335.881 409.725 336.205 419.796 331.328C429.901 326.435 436.914 317.007 443.519 307.925C461.578 283.097 479.637 258.268 497.701 233.44C500.789 229.196 504.036 224.386 503.387 219.174C502.573 212.629 495.456 209.47 489.01 208.082C457.593 201.313 431.14 284.611 389.912 302.146L389.912 302.152Z" stroke="#F8F6EE" stroke-width="2.14886" stroke-miterlimit="10"/>
<path opacity="0.05" d="M830.946 -98.3081C803.833 -67.2657 790.051 -24.6871 794.586 16.3453C795.88 28.0641 797.574 42.3358 788.102 49.3475C775.96 58.3362 759.673 45.99 750.217 34.2067C740.767 22.4277 726.395 8.81034 712.927 15.6523C705.068 19.6427 701.335 29.5275 693.211 32.9517C683.244 37.1506 672.313 29.693 664.943 21.7723C657.573 13.8581 650.032 4.34714 639.272 3.20717C626.243 1.82008 615.236 14.1331 612.247 26.8909C609.258 39.6497 611.823 52.9533 612.252 66.0463C612.257 66.1784 612.263 66.3106 612.263 66.4428C612.753 83.7701 591.325 92.2838 579.69 79.438L451.407 -62.2353C443.541 -70.9199 432.329 -86.7172 438.709 -98.3081" stroke="#F8F6EE" stroke-width="2.14886" stroke-miterlimit="10"/>
<path opacity="0.05" d="M858.747 -98.308C851.217 -88.0375 845.13 -76.5616 840.33 -64.7837C830.203 -39.9439 825.079 -13.4141 818.374 12.5592C804.411 66.6857 783.385 118.978 755.997 167.706C753.734 171.729 751.17 175.972 746.959 177.866C737.228 182.242 727.189 170.997 725.504 160.457C723.011 144.858 729.566 129.409 735.675 114.845C741.791 100.282 747.703 84.3805 743.931 69.0409C740.156 53.7066 722.169 41.1025 708.331 48.7202C693.624 56.8171 691.478 81.9308 674.872 84.4031C662.94 86.1802 650.88 73.9564 639.921 78.9922C630.515 83.3125 630.267 96.5226 632.474 106.633C634.681 116.744 637.411 128.743 630.35 136.306C624.779 142.272 615.009 142.487 607.618 139.03C600.226 135.567 594.655 129.222 589.317 123.051C525.409 49.2649 461.507 -24.5162 397.595 -98.308" stroke="#F8F6EE" stroke-width="2.14886" stroke-miterlimit="10"/>
<path opacity="0.05" d="M923.068 -98.3076C918.142 -92.4842 911.917 -87.6578 904.696 -84.2777C885.002 -75.0698 868.226 -57.9413 857.256 -38.7713C840.193 -8.95052 833.853 25.5763 824.782 58.716C810.928 109.33 790.14 158.041 763.18 203.058C757.808 212.03 751.517 221.419 741.726 225.085C725.417 231.189 707.022 217.379 702.124 200.675C697.225 183.964 702.108 166.06 707.958 149.658C713.055 135.365 717.959 116.959 706.472 107.041C696.092 98.0809 678.44 104.349 671.78 116.331C665.115 128.32 666.809 143.208 670.74 156.346C674.665 169.478 680.647 182.143 682.161 195.771C683.201 205.166 679.447 217.446 670.003 217.848C664.267 218.089 659.561 213.598 655.615 209.426C580.765 130.345 505.915 51.2637 431.064 -27.8122C417.596 -42.0462 401.324 -57.4299 381.78 -55.9321C362.269 -54.4408 347.646 -35.1989 345.626 -15.7366C343.617 3.72558 351.46 22.8795 361.162 39.8759C370.864 56.8723 382.629 72.8393 389.71 91.0788C394.974 104.641 397.403 120.284 391.364 133.521C385.337 146.758 368.586 155.636 355.543 149.201C333.721 138.441 335.419 96.3737 311.104 95.6205C302.498 95.3508 293.999 101.416 285.791 98.8233C278.474 96.5176 274.735 87.9039 275.304 80.2475C275.874 72.5965 279.667 65.6181 283.072 58.7375C306.914 10.5396 314.467 -45.4199 304.98 -98.3076" stroke="#F8F6EE" stroke-width="2.14886" stroke-miterlimit="10"/>
</g>
<rect x="0.170898" y="405.247" width="1440.52" height="404.886" fill="url(#paint0_linear_16418_1129)"/>
</g>
</g>
<defs>
<linearGradient id="paint0_linear_16418_1129" x1="720.432" y1="405.247" x2="720.432" y2="810.133" gradientUnits="userSpaceOnUse">
<stop stop-color="#203747" stop-opacity="0"/>
<stop offset="1" stop-color="#203747"/>
</linearGradient>
<clipPath id="clip0_16418_1129">
<rect width="895" height="1491.67" fill="white" transform="translate(1491.67 -101) rotate(90)"/>
</clipPath>
<clipPath id="clip1_16418_1129">
<rect width="2099.44" height="895" fill="white" transform="translate(1491.67 794) rotate(-180)"/>
</clipPath>
</defs>
</svg>
